<svg width="20" height="20" viewBox="0 0 20 20" fill="none" xmlns="http://www.w3.org/2000/svg">
<path d="M17.8125 8.95754H16.0045C15.9018 8.95754 15.8036 9.00218 15.7344 9.08031L10.8482 14.712V2.1428C10.8482 2.04459 10.7679 1.96423 10.6697 1.96423H9.33037C9.23215 1.96423 9.1518 2.04459 9.1518 2.1428V14.712L4.26563 9.08031C4.19867 9.00218 4.10046 8.95754 3.99555 8.95754H2.18751C2.03572 8.95754 1.95313 9.13834 2.05358 9.25218L9.46206 17.7901C9.52903 17.8674 9.61182 17.9293 9.70483 17.9718C9.79784 18.0143 9.89888 18.0363 10.0011 18.0363C10.1034 18.0363 10.2044 18.0143 10.2974 17.9718C10.3904 17.9293 10.4732 17.8674 10.5402 17.7901L17.9464 9.25218C18.0469 9.13611 17.9643 8.95754 17.8125 8.95754Z" fill="#FFB121"/>
</svg>
