<svg width="26" height="25" viewBox="0 0 26 25" fill="none" xmlns="http://www.w3.org/2000/svg">
<rect y="0.5" width="26" height="24" rx="3" fill="#2875D0"/>
<path d="M13.0546 8.70914V10.7546L15.7818 8.02732L13.0546 5.30005V7.3455C10.0409 7.3455 7.60001 9.78641 7.60001 12.8C7.60001 13.8705 7.91364 14.866 8.44546 15.7046L9.44091 14.7091C9.1341 14.1432 8.96364 13.4887 8.96364 12.8C8.96364 10.5432 10.7977 8.70914 13.0546 8.70914ZM17.6636 9.8955L16.6682 10.891C16.9682 11.4637 17.1455 12.1114 17.1455 12.8C17.1455 15.0569 15.3114 16.891 13.0546 16.891V14.8455L10.3273 17.5728L13.0546 20.3V18.2546C16.0682 18.2546 18.5091 15.8137 18.5091 12.8C18.5091 11.7296 18.1955 10.7341 17.6636 9.8955Z" fill="white"/>
</svg>
