<svg width="150" height="150" viewBox="0 0 150 150" fill="none" xmlns="http://www.w3.org/2000/svg">
<path d="M127.772 127.11C127.772 127.11 133.739 109.092 128.285 101.601C122.831 94.11 118.505 90.804 121.238 84.762C123.971 78.72 122.753 68.847 115.532 65.88C108.308 62.913 111.662 51.75 103.664 45.339C95.6658 38.928 89.1468 41.829 85.3128 33.921C81.9468 26.976 74.9598 20.43 67.9698 27.159C66.4368 28.635 65.4078 30.558 64.8738 32.64C64.3158 34.818 62.3628 38.586 55.7688 42.354C45.6228 48.153 49.6458 51.891 45.5718 58.587C41.4978 65.286 28.4328 61.914 23.5308 74.763C18.6288 87.612 29.2068 91.926 28.3488 99.606C27.4908 107.286 22.4088 111.477 25.5048 126.897" stroke="#E5C2A5" stroke-miterlimit="10"/>
<path d="M130.654 127.305C130.654 127.305 137.635 107.37 131.749 99.8009C125.863 92.2289 121.198 88.89 124.147 82.785C127.096 76.68 125.782 66.702 117.991 63.705C110.197 60.708 113.815 49.4249 105.187 42.9479C96.559 36.4709 90.784 37.0889 86.647 29.0999C83.014 22.0829 74.218 17.7779 66.673 24.5789C65.02 26.0699 63.91 28.0139 63.334 30.1169C62.731 32.3159 60.625 36.1259 53.509 39.9329C42.562 45.7919 46.903 49.5689 42.505 56.3369C38.107 63.1049 25.954 60.7829 20.518 72.1199C14.458 84.7619 23.872 89.844 22.945 97.605C22.018 105.366 19.693 111.528 23.032 127.11" stroke="#E5C2A5" stroke-miterlimit="10"/>
<path d="M68.9224 31.1759C67.4254 32.6519 66.4204 34.5749 65.8984 36.6569C65.3524 38.8349 63.4444 42.6029 57.0034 46.3709C47.0944 52.1699 51.0244 55.9079 47.0434 62.6039C43.0624 69.3029 31.7254 64.1639 26.9374 77.0129C22.1494 89.8619 33.1864 95.6609 32.3494 103.344C31.5124 111.027 24.9214 111.477 27.9454 126.897H127.833C127.833 126.897 133.161 113.112 127.833 105.618C122.505 98.1269 118.281 94.8179 120.951 88.7789C123.621 82.7369 122.433 72.8639 115.377 69.8969C108.321 66.9299 111.597 55.7669 103.785 49.3559C95.9734 42.9449 89.6074 45.8459 85.8604 37.9379C82.5724 30.9929 75.7474 24.4469 68.9194 31.1759H68.9224Z" fill="#F7E4D2"/>
<path d="M69.3165 34.788C67.8855 36.198 66.9225 38.0399 66.4245 40.0289C65.9025 42.1109 64.0785 45.717 57.9165 49.323C48.4395 54.87 52.1955 58.446 48.3885 64.851C44.5815 71.256 33.7365 66.3419 29.1555 78.633C24.5775 90.924 35.1345 96.471 34.3335 103.818C33.5325 111.165 27.2295 111.597 30.1215 126.345H125.666C125.666 126.345 130.763 113.16 125.666 105.993C120.569 98.826 116.531 95.664 119.084 89.886C121.637 84.108 120.5 74.661 113.753 71.826C107.006 68.991 110.138 58.3109 102.668 52.1789C95.1975 46.0469 89.1045 48.819 85.5225 41.256C82.3755 34.614 75.8505 28.35 69.3195 34.788H69.3165Z" stroke="white" stroke-miterlimit="10"/>
<path d="M106.183 71.202C105.595 70.86 104.821 71.106 104.695 70.917C104.569 70.728 105.328 70.134 105.574 69.51C105.82 68.889 105.544 67.278 104.542 68.037C103.54 68.796 103.495 70.089 103.495 70.089C103.495 70.089 103.48 70.161 103.465 70.278C103.126 69.477 103.309 68.376 103.309 68.361C103.318 68.301 103.279 68.244 103.219 68.232C103.156 68.223 103.102 68.262 103.093 68.322C103.084 68.37 102.94 69.252 103.156 70.05C102.628 69.444 101.863 69.075 101.821 69.054C101.767 69.027 101.701 69.054 101.674 69.108C101.647 69.162 101.674 69.228 101.728 69.255C101.74 69.261 102.832 69.786 103.258 70.575C103.126 70.479 103.033 70.431 103.033 70.431C103.033 70.431 102.025 69.621 100.798 69.885C99.5707 70.149 100.609 71.409 101.239 71.631C101.869 71.853 102.814 71.664 102.877 71.883C102.94 72.105 102.247 72.528 102.121 73.197C101.995 73.866 102.781 74.562 103.222 74.592C103.621 74.619 104.227 73.278 104.218 72.276C104.992 72.885 106.291 73.254 106.519 72.948C106.783 72.594 106.771 71.544 106.183 71.202Z" fill="#DBA291"/>
<path d="M40.9809 81.5849C40.8699 81.0359 40.2969 80.6939 40.3479 80.5109C40.3959 80.3279 41.1759 80.4749 41.6919 80.2859C42.2079 80.0969 43.0479 79.0529 42.0369 78.8489C41.0259 78.6449 40.2069 79.3199 40.2069 79.3199C40.2069 79.3199 40.1529 79.3499 40.0749 79.4039C40.3809 78.7589 41.1579 78.2699 41.1669 78.2669C41.2089 78.2399 41.2239 78.1859 41.1969 78.1409C41.1699 78.0959 41.1159 78.0839 41.0739 78.1109C41.0409 78.1319 40.4169 78.5219 40.0449 79.0889C40.1319 78.4349 39.9399 77.7599 39.9309 77.7239C39.9159 77.6759 39.8679 77.6489 39.8199 77.6609C39.7719 77.6759 39.7449 77.7239 39.7569 77.7719C39.7569 77.7809 40.0299 78.7409 39.7779 79.4339C39.7659 79.3019 39.7449 79.2179 39.7449 79.2179C39.7449 79.2179 39.6939 78.1559 38.8629 77.5439C38.0319 76.9319 37.8219 78.2579 38.0289 78.7649C38.2359 79.2719 38.8659 79.7519 38.7639 79.9109C38.6619 80.0699 38.0259 79.8749 37.5429 80.1599C37.0599 80.4449 37.0629 81.3089 37.2849 81.5999C37.4859 81.8609 38.6379 81.5039 39.2529 80.9519C39.2979 81.7589 39.7779 82.7609 40.0929 82.7339C40.4559 82.7039 41.0949 82.1249 40.9839 81.5759L40.9809 81.5849Z" fill="#DBA291"/>
<path d="M74.7104 43.032C74.5994 42.483 74.0264 42.141 74.0774 41.958C74.1254 41.775 74.9054 41.922 75.4214 41.733C75.9374 41.544 76.7774 40.5 75.7664 40.296C74.7554 40.092 73.9364 40.767 73.9364 40.767C73.9364 40.767 73.8824 40.797 73.8044 40.851C74.1104 40.206 74.8874 39.717 74.8964 39.714C74.9384 39.687 74.9534 39.633 74.9264 39.588C74.8994 39.543 74.8454 39.531 74.8034 39.558C74.7704 39.579 74.1464 39.969 73.7744 40.536C73.8614 39.882 73.6694 39.207 73.6604 39.171C73.6454 39.123 73.5974 39.096 73.5494 39.108C73.5014 39.123 73.4744 39.171 73.4864 39.219C73.4864 39.228 73.7594 40.188 73.5074 40.881C73.4954 40.749 73.4744 40.665 73.4744 40.665C73.4744 40.665 73.4234 39.603 72.5924 38.991C71.7614 38.379 71.5514 39.705 71.7584 40.212C71.9654 40.719 72.5954 41.199 72.4934 41.358C72.3914 41.517 71.7554 41.322 71.2724 41.607C70.7924 41.895 70.7924 42.756 71.0144 43.047C71.2154 43.308 72.3674 42.951 72.9824 42.399C73.0274 43.206 73.5074 44.208 73.8224 44.181C74.1854 44.151 74.8244 43.572 74.7134 43.023L74.7104 43.032Z" fill="#DBA291"/>
<path d="M59.3973 57.9268C59.2923 58.0708 59.0883 58.1008 58.9473 57.9928C58.8033 57.8878 58.7733 57.6838 58.8813 57.5398C58.9863 57.3958 59.1903 57.3658 59.3313 57.4738C59.4753 57.5788 59.5053 57.7828 59.3973 57.9268Z" fill="white"/>
<path d="M60.2274 56.5499C60.1224 56.6939 59.9184 56.7239 59.7774 56.6159C59.6334 56.5109 59.6034 56.3069 59.7114 56.1629C59.8194 56.0189 60.0204 55.9889 60.1614 56.0969C60.3024 56.2049 60.3354 56.4059 60.2274 56.5499Z" fill="white"/>
<path d="M61.1981 58.7188C61.0931 58.8628 60.8891 58.8928 60.7481 58.7848C60.6041 58.6798 60.5741 58.4758 60.6821 58.3318C60.7871 58.1878 60.9911 58.1578 61.1321 58.2658C61.2761 58.3708 61.3061 58.5748 61.1981 58.7188Z" fill="white"/>
<path d="M102.814 61.7099C102.709 61.8539 102.505 61.8839 102.364 61.7759C102.223 61.6679 102.19 61.4669 102.298 61.3229C102.406 61.1789 102.607 61.1489 102.748 61.2569C102.892 61.3619 102.922 61.5659 102.814 61.7099Z" fill="white"/>
<path d="M103.649 60.333C103.544 60.477 103.34 60.507 103.199 60.399C103.055 60.294 103.025 60.09 103.133 59.946C103.238 59.802 103.442 59.772 103.583 59.88C103.727 59.985 103.757 60.189 103.649 60.333Z" fill="white"/>
<path d="M104.614 62.5019C104.509 62.6459 104.305 62.6759 104.164 62.5679C104.02 62.4629 103.99 62.2589 104.098 62.1149C104.206 61.9709 104.407 61.9409 104.548 62.0489C104.692 62.1539 104.722 62.3579 104.614 62.5019Z" fill="white"/>
<path d="M87.5028 48.6179C87.3978 48.7619 87.1938 48.7919 87.0528 48.6839C86.9088 48.5789 86.8788 48.3749 86.9868 48.2309C87.0918 48.0869 87.2958 48.0569 87.4368 48.1649C87.5808 48.2699 87.6108 48.4739 87.5028 48.6179Z" fill="white"/>
<path d="M88.3329 47.2409C88.2279 47.3849 88.0239 47.4149 87.8829 47.3069C87.7389 47.2019 87.7089 46.9979 87.8169 46.8539C87.9249 46.7099 88.1259 46.6799 88.2669 46.7879C88.4109 46.8929 88.4409 47.0969 88.3329 47.2409Z" fill="white"/>
<path d="M89.3036 49.4099C89.1986 49.5539 88.9946 49.5839 88.8536 49.4759C88.7096 49.3709 88.6796 49.1669 88.7876 49.0229C88.8956 48.8789 89.0966 48.8489 89.2376 48.9569C89.3816 49.0619 89.4116 49.2659 89.3036 49.4099Z" fill="white"/>
<path d="M91.6715 67.4039C91.5335 67.2899 91.5155 67.0859 91.6295 66.9509C91.7435 66.8129 91.9475 66.7949 92.0825 66.9089C92.2205 67.0229 92.2385 67.2269 92.1245 67.3619C92.0105 67.4999 91.8065 67.5179 91.6715 67.4039Z" fill="white"/>
<path d="M93.0016 68.3069C92.8636 68.1929 92.8456 67.9889 92.9596 67.8539C93.0736 67.7159 93.2776 67.6979 93.4126 67.8119C93.5476 67.9259 93.5686 68.1299 93.4546 68.2649C93.3406 68.4029 93.1366 68.4209 93.0016 68.3069Z" fill="white"/>
<path d="M90.7868 69.162C90.6488 69.048 90.6308 68.844 90.7448 68.709C90.8588 68.571 91.0628 68.553 91.1978 68.667C91.3358 68.781 91.3538 68.985 91.2398 69.12C91.1258 69.258 90.9218 69.276 90.7868 69.162Z" fill="white"/>
<path d="M45.2282 74.1839C45.2282 74.4119 45.0452 74.5949 44.8172 74.5949C44.5892 74.5949 44.4062 74.4119 44.4062 74.1839C44.4062 73.9559 44.5892 73.7729 44.8172 73.7729C45.0452 73.7729 45.2282 73.9559 45.2282 74.1839Z" fill="white"/>
<path d="M100.186 53.0279C100.186 53.3099 99.958 53.5379 99.676 53.5379C99.394 53.5379 99.166 53.3099 99.166 53.0279C99.166 52.7459 99.394 52.5179 99.676 52.5179C99.958 52.5179 100.186 52.7459 100.186 53.0279Z" fill="white"/>
<path d="M64.9907 68.913C64.9907 69.195 64.7627 69.423 64.4807 69.423C64.1987 69.423 63.9707 69.195 63.9707 68.913C63.9707 68.631 64.1987 68.403 64.4807 68.403C64.7627 68.403 64.9907 68.631 64.9907 68.913Z" fill="white"/>
<path d="M74.7256 35.631C74.7256 35.802 74.5876 35.943 74.4136 35.943C74.2396 35.943 74.1016 35.805 74.1016 35.631C74.1016 35.457 74.2396 35.319 74.4136 35.319C74.5876 35.319 74.7256 35.457 74.7256 35.631Z" fill="white"/>
<path d="M98.4963 81.2939C98.4963 81.5489 98.2893 81.7559 98.0343 81.7559C97.7793 81.7559 97.5723 81.5489 97.5723 81.2939C97.5723 81.0389 97.7793 80.8319 98.0343 80.8319C98.2893 80.8319 98.4963 81.0389 98.4963 81.2939Z" fill="white"/>
<path d="M68.1994 46.1369C68.1994 46.3919 67.9924 46.5989 67.7374 46.5989C67.4824 46.5989 67.2754 46.3919 67.2754 46.1369C67.2754 45.8819 67.4824 45.6749 67.7374 45.6749C67.9924 45.6749 68.1994 45.8819 68.1994 46.1369Z" fill="white"/>
<path d="M17.2737 123.546H140.598C141.507 123.546 141.756 124.797 140.916 125.142C132.669 128.532 110.793 136.206 80.1357 137.085C51.6267 137.901 27.8097 130.482 16.7697 126.294C15.2937 125.733 15.6957 123.549 17.2737 123.549V123.546Z" fill="#F7E4D2"/>
<path d="M58.3805 97.716C58.1075 92.844 53.0015 91.866 52.4915 90.654C51.9815 89.442 51.1565 86.961 47.4815 85.794C43.8065 84.624 41.5175 86.787 39.4595 85.461C37.3985 84.138 35.5655 83.043 33.1115 84.708C30.6575 86.373 28.9175 85.761 25.3715 85.359C21.8285 84.957 19.0115 88.377 19.0115 88.377C17.6255 89.649 18.9635 91.26 22.2305 92.049C26.8445 93.165 25.5275 96.162 27.9875 97.377C30.4475 98.592 33.3725 97.389 35.2235 98.859C37.0775 100.329 36.9365 102.996 39.2315 103.62C41.5265 104.247 44.2325 102.723 45.5465 103.623C46.8605 104.526 47.5745 107.196 49.1405 108.12C50.7065 109.044 55.1405 109.272 55.1405 109.272L56.2115 109.014C56.2115 109.014 58.6505 102.591 58.3775 97.719L58.3805 97.716Z" fill="#B9BC7E"/>
<path d="M55.4857 107.478C55.4857 107.478 54.3277 97.533 47.4907 93.006C40.6507 88.476 29.4367 88.368 26.0377 88.182L22.6387 87.993C22.6387 87.993 36.3637 87.12 43.1677 89.889C52.5127 93.69 55.1767 99.9 55.4857 107.481V107.478Z" fill="#FFFBF4"/>
<path d="M50.4692 97.008C50.4692 97.008 44.7512 91.899 43.8902 87.648C43.0292 83.397 45.5552 81.807 43.8542 79.656C42.1532 77.502 42.9122 73.641 44.7452 72.66C46.5782 71.679 47.3282 69.54 47.5052 66.582C47.6822 63.624 49.9382 62.523 50.6372 63.345C52.5602 65.604 51.6032 67.914 54.5462 69.351C57.4892 70.788 58.5302 73.764 57.7922 76.203C57.0542 78.639 60.2972 79.419 62.4452 83.139C64.5932 86.859 63.0362 89.97 62.1272 92.304C61.2152 94.638 63.7412 97.449 62.8232 100.14C61.9052 102.831 55.5782 107.259 55.5782 107.259C55.5782 107.259 52.5182 106.128 50.4692 97.014V97.008Z" fill="#CFC293"/>
<path d="M50.4121 67.464C50.4121 67.464 52.2991 74.745 54.5731 84.132C56.8471 93.519 57.2311 105.096 57.2311 105.096C57.2311 105.096 58.5481 96.693 56.8411 88.809C55.1341 80.925 50.5561 68.679 50.4121 67.464Z" fill="#FFFBF4"/>
<path d="M51.237 100.809C50.457 96.81 54.39 94.968 54.555 93.882C54.72 92.796 54.876 90.618 57.612 88.917C60.348 87.216 62.643 88.494 64.041 87C65.436 85.506 66.696 84.243 69.027 85.086C71.358 85.929 72.639 85.077 75.426 84.024C78.213 82.971 81.195 85.161 81.195 85.161C82.578 85.905 81.828 87.483 79.344 88.794C75.837 90.645 77.52 92.802 75.777 94.29C74.034 95.778 71.421 95.406 70.221 96.975C69.021 98.547 69.684 100.677 67.953 101.655C66.225 102.633 63.72 101.955 62.841 102.954C61.962 103.953 61.932 106.263 60.855 107.334C59.775 108.402 56.232 109.5 56.232 109.5L55.311 109.509C55.311 109.509 52.017 104.811 51.237 100.809Z" fill="#B9BC7E"/>
<path d="M55.5837 108.12C55.5837 108.12 54.4767 99.8309 59.0847 94.7579C63.6927 89.6849 72.7497 87.2939 75.4647 86.4449L78.1797 85.5959C78.1797 85.5959 66.8877 87.7079 61.9467 91.3469C55.1607 96.3449 54.2786 101.919 55.5867 108.12H55.5837Z" fill="#FFFBF4"/>
<path d="M52.8811 108.105C52.8811 108.105 45.3481 106.041 41.3911 107.853C37.4341 109.662 36.7051 112.149 36.7051 112.149C36.7051 112.149 38.4001 112.743 41.6221 112.29C44.8441 111.84 45.3271 109.929 47.5741 110.838C49.8211 111.747 50.5591 112.62 52.4491 112.077C54.3391 111.534 55.3111 109.509 55.3111 109.509L52.8811 108.105Z" fill="#9A9B82"/>
<path d="M56.5902 108.375C56.5902 108.375 58.6152 106.041 61.5552 106.194C64.4952 106.35 65.0112 107.373 66.4482 107.439C67.8882 107.505 68.6832 107.049 70.6482 107.721C72.5922 108.384 73.7442 109.296 73.7442 109.296C73.7442 109.296 71.7462 112.188 68.6352 111.438C65.5242 110.688 63.1722 110.205 62.1522 111.249C61.1352 112.29 54.7422 110.391 54.7422 110.391L56.5872 108.372L56.5902 108.375Z" fill="#9A9B82"/>
<path d="M100.201 99.102C100.201 99.102 104.437 101.82 113.146 103.338C121.858 104.856 125.533 102.378 126.013 101.22C126.493 100.062 125.053 99.423 119.38 98.382C113.707 97.344 112.189 96.063 114.985 95.745C117.781 95.424 121.699 97.902 125.053 97.902C128.407 97.902 130.726 96.117 130.807 94.893C130.888 93.669 120.739 93.348 119.458 91.59C118.18 89.832 126.037 91.671 129.421 92.148C132.805 92.628 134.164 89.991 133.924 89.112C133.684 88.233 125.452 87.948 124.654 86.733C123.856 85.518 128.089 85.95 131.767 86.733C135.445 87.516 137.281 84.798 136.801 84.159C136.321 83.52 129.529 83.04 128.809 81.84C128.089 80.64 132.484 80.961 134.722 81.441C136.96 81.921 139.357 79.764 138.559 79.044C137.761 78.324 132.724 78.084 132.565 77.046C132.406 76.008 139.273 76.566 138.715 75.048C138.157 73.53 136.24 72.108 133.285 72.06C130.33 72.012 127.612 75.129 126.013 74.169C124.414 73.209 129.928 70.893 128.491 70.014C127.054 69.135 123.856 69.615 122.737 71.133C121.618 72.651 121.537 75.21 120.34 75.129C119.14 75.048 121.219 71.454 120.181 70.653C119.143 69.855 116.425 71.532 115.867 73.131C115.309 74.73 115.948 77.925 114.829 78.087C113.71 78.246 115.099 72.972 114.124 72.492C113.149 72.012 110.035 75.129 109.954 77.046C109.873 78.963 110.914 81.984 109.234 82.473C107.557 82.959 107.875 76.968 106.597 76.407C105.319 75.849 102.76 79.512 103.162 82.515C103.561 85.518 104.44 87.972 103.243 87.984C102.043 87.993 101.164 84.159 100.207 83.52C99.2469 82.881 98.3829 84.48 98.1369 88.554C97.8909 92.631 99.8109 98.103 100.207 99.102H100.201Z" fill="#D1C795"/>
<path d="M98.8327 105.666C98.8327 105.666 103.321 94.1519 108.544 87.7709C113.767 81.3899 123.844 77.5439 128.698 77.2679C128.698 77.2679 117.211 79.4039 109.825 88.5359C102.439 97.6679 99.6547 110.157 99.6547 110.157L97.6387 109.761L98.8297 105.669L98.8327 105.666Z" fill="#FFFBF4"/>
<path d="M17.4998 122.577C17.4998 122.577 18.1418 120.189 21.2858 119.082C24.4328 117.975 24.8978 120.948 26.8808 120.831C28.8608 120.714 29.7818 124.56 29.7818 124.56H16.8008L17.4998 122.58V122.577Z" fill="#9A9B82"/>
<path d="M25.1072 124.422C24.9242 123.516 24.6452 122.496 24.2972 121.404C24.8672 120.297 26.4812 116.784 26.4422 112.53C26.3942 107.367 22.8182 101.955 22.8182 101.955C22.8182 101.955 21.8792 110.787 23.4362 118.911C22.3592 116.004 20.9762 112.851 19.6982 110.094C20.2412 108.954 21.2222 106.5 21.2132 103.59C21.2042 99.567 18.4412 95.328 18.4412 95.328C18.4412 95.328 17.7002 101.883 18.7532 108.093C17.8112 106.119 16.9952 104.499 16.5032 103.533C16.4162 102.171 16.0802 99.783 14.8412 97.44C12.9602 93.882 8.5472 91.413 8.5472 91.413C8.5472 91.413 11.3282 98.562 15.6812 103.722C16.0742 104.496 16.7372 105.813 17.5292 107.451C16.9232 106.563 16.1522 105.621 15.1802 104.763C12.1622 102.102 7.1582 101.358 7.1582 101.358C7.1582 101.358 12.8462 107.67 19.1282 110.832C19.7822 112.248 20.4542 113.754 21.0962 115.272C20.3702 114.285 19.4792 113.265 18.4052 112.329C14.5112 108.942 8.0852 108.03 8.0852 108.03C8.0852 108.03 15.0422 115.653 22.8662 119.751C23.5142 121.539 24.0302 123.207 24.3062 124.584L25.1042 124.422H25.1072Z" fill="#B9BC7E"/>
<path d="M127.774 121.983H131.725C131.725 121.983 133.513 118.689 137.842 116.43C142.171 114.171 142.642 111.447 142.828 110.175C143.017 108.903 141.133 109.56 138.31 111.255C135.487 112.95 134.734 116.958 133.51 116.883C132.286 116.808 133.039 112.197 135.673 110.691C138.307 109.185 140.377 105.516 141.037 103.164C141.697 100.812 136.333 102.504 133.792 105.327C131.251 108.15 131.629 115.044 129.745 115.926C127.864 116.808 131.155 111.021 127.345 108.66C125.818 107.712 125.416 110.421 125.887 113.85C126.358 117.279 128.71 118.878 127.768 121.983H127.774Z" fill="#9A9B82"/>
<path d="M121.119 124.032C121.119 124.032 128.058 124.788 133.419 124.788C138.78 124.788 140.838 124.308 140.838 124.308C140.838 124.308 139.671 122.109 136.236 121.284C132.801 120.459 132.456 122.52 130.947 121.284C129.435 120.048 126.687 119.154 124.281 119.841C121.875 120.528 121.119 124.032 121.119 124.032Z" fill="#D7CA8C"/>
<path d="M76.9325 130.347C99.8484 130.347 118.425 128.825 118.425 126.948C118.425 125.071 99.8484 123.549 76.9325 123.549C54.0165 123.549 35.4395 125.071 35.4395 126.948C35.4395 128.825 54.0165 130.347 76.9325 130.347Z" fill="#E2C9B5"/>
<path d="M115.539 108.186L112.386 111.51C112.386 111.51 112.386 111.513 112.383 111.519L111.789 112.14L111.783 112.143L111.747 112.182C111.747 112.182 111.738 112.176 111.735 112.173C104.931 107.964 98.3674 101.694 96.7144 100.077C95.8654 99.3119 95.0674 98.3969 94.4494 97.3049C92.9974 94.7339 91.0354 89.9309 89.6674 86.4149L89.4874 87.1799L87.0244 97.6169C88.0774 99.2339 89.5204 101.712 90.7564 104.766C91.3834 106.317 91.9564 108.021 92.3974 109.83L78.2404 118.158V118.368L78.0514 118.266L77.8624 118.374V118.164L63.3904 110.385C63.8584 108.093 64.5394 105.969 65.2774 104.094C65.2894 104.064 65.3014 104.031 65.3134 104.001C66.3214 101.472 67.4374 99.3989 68.2894 97.9709L65.3824 87.4709L64.9894 86.0579L64.7794 85.2959C63.3964 88.7309 60.8464 94.8539 59.0674 97.8629C58.4284 98.9429 57.6184 99.8429 56.7484 100.59C55.0684 102.174 48.3724 108.327 41.4904 112.41L40.8604 111.723L37.7734 108.342L53.4634 93.5909L58.7644 78.4319C61.8184 71.8799 64.1074 71.7899 64.1074 71.7899C64.5304 71.4389 65.0104 71.1389 65.5504 70.9259C65.7244 70.8569 65.9014 70.7879 66.0844 70.7129H66.0874C67.1224 70.2839 68.2804 69.7409 69.4414 69.0599C70.8094 68.2529 72.1774 67.2479 73.3504 66.0059C73.5214 64.8389 73.5844 63.1799 73.6084 62.1029C73.6204 61.4609 73.6204 61.0229 73.6204 61.0229L76.9564 61.3649L80.2774 60.8939C80.2774 60.8939 80.3074 61.7609 80.3854 62.8469C80.4604 63.8249 80.5684 64.9829 80.7334 65.8649C81.2764 66.3989 81.8584 66.8849 82.4614 67.3199C84.5524 68.8589 86.8834 69.8459 88.7164 70.4819C89.1904 70.6469 89.6224 70.8779 90.0154 71.1539C90.4924 71.2739 92.5624 72.1019 95.1214 77.8829L100.134 93.1379L115.542 108.186H115.539Z" fill="#5E4453"/>
<path d="M82.4629 67.323C81.9259 67.926 80.2819 69.219 75.6259 70.29C69.3289 71.736 66.0859 70.716 66.0859 70.716H66.0889C67.1239 70.287 68.2819 69.744 69.4429 69.063C70.8109 68.256 72.1789 67.251 73.3519 66.009C73.5229 64.842 73.5859 63.183 73.6099 62.106L80.3869 62.85C80.4619 63.828 80.5699 64.986 80.7349 65.868C81.2779 66.402 81.8599 66.888 82.4629 67.323Z" fill="#3F2935"/>
<path d="M86.0096 89.8379C83.7986 90.8159 79.9376 88.9199 76.6586 89.9789C73.3796 91.0379 71.7536 94.0739 71.1176 97.9559C70.4816 101.835 72.1046 107.478 72.1046 107.478C72.1046 107.478 69.1736 108.291 65.3096 104.007C66.3176 101.478 67.4336 99.4049 68.2856 97.9769L64.9856 86.0639L64.7756 85.3019C64.7756 85.3019 63.9896 81.2279 65.9636 78.1229C65.9636 78.1229 65.3486 81.4439 66.5036 84.4769C67.6556 87.5099 70.3766 87.5099 73.2146 87.4409C76.0526 87.3719 76.0136 86.3969 79.2206 87.0899C84.5726 88.2419 86.6636 87.7259 87.9116 85.9679C88.7336 84.8099 88.2116 88.8629 86.0036 89.8439L86.0096 89.8379Z" fill="#3F2935"/>
<path d="M70.7818 57.4199C70.7818 57.4199 70.0228 55.8689 69.0208 55.9319C68.0218 55.9919 67.6858 58.1279 69.0958 59.7899C70.5058 61.4519 71.7838 60.7409 71.7838 60.7409L70.7818 57.4229V57.4199Z" fill="#EA8D78"/>
<path d="M83.3242 57.18C83.3242 57.18 84.0232 55.602 85.0252 55.623C86.0272 55.644 86.4442 57.765 85.1002 59.481C83.7562 61.197 82.4512 60.534 82.4512 60.534L83.3242 57.18Z" fill="#EA8D78"/>
<path d="M83.7757 53.9789C83.8957 60.1739 80.2027 65.7089 77.2627 65.7659C73.6957 65.8349 70.2457 60.0179 70.1347 54.2399C70.0537 49.9679 72.6157 46.4519 76.8877 46.3709C81.1597 46.2899 83.6887 49.7069 83.7727 53.9789H83.7757Z" fill="#FFA488"/>
<path d="M71.666 54.552C71.666 54.552 72.668 54.267 73.754 54.186C75.116 54.087 75.617 54.228 75.617 54.228C75.617 54.228 75.356 53.466 74.21 53.487C73.064 53.508 71.666 54.552 71.666 54.552Z" fill="#2F2A00"/>
<path d="M75.5497 56.223C75.5497 56.223 74.7457 55.143 73.7137 55.131C72.6817 55.119 71.7637 56.2949 71.7637 56.2949C71.7637 56.2949 72.0457 56.6039 73.5127 56.6669C75.0157 56.7329 75.5497 56.2199 75.5497 56.2199V56.223Z" fill="#EA8D78"/>
<path d="M73.6831 56.583C72.7111 56.592 71.9191 56.349 71.7841 56.304L71.7691 56.298H71.7661C71.5951 56.412 71.2441 56.439 71.2441 56.439C71.6071 56.553 71.8921 56.514 72.0211 56.487C72.3031 56.679 72.7981 56.928 73.6891 56.919C74.9671 56.904 75.5461 56.226 75.5461 56.226C75.5461 56.226 74.7511 56.574 73.6831 56.586V56.583Z" fill="#2F2A00"/>
<path d="M82.1944 54.3479C82.1944 54.3479 81.1804 54.1019 80.0944 54.0629C78.7324 54.0149 78.2344 54.1769 78.2344 54.1769C78.2344 54.1769 78.4654 53.4059 79.6114 53.3819C80.7574 53.3609 82.1944 54.3479 82.1944 54.3479Z" fill="#2F2A00"/>
<path d="M78.377 56.169C78.377 56.169 79.1389 55.059 80.1709 55.008C81.2029 54.957 82.163 56.097 82.163 56.097C82.163 56.097 81.893 56.418 80.429 56.538C78.929 56.661 78.377 56.172 78.377 56.172V56.169Z" fill="#EA8D78"/>
<path d="M82.688 56.22C82.688 56.22 82.3369 56.205 82.1599 56.1H82.154L82.1389 56.106C82.0069 56.154 81.224 56.43 80.252 56.457C79.184 56.487 78.377 56.169 78.377 56.169C78.377 56.169 78.98 56.826 80.261 56.79C81.152 56.766 81.638 56.496 81.911 56.295C82.04 56.319 82.3279 56.346 82.6849 56.217L82.688 56.22Z" fill="#2F2A00"/>
<path d="M76.0762 59.9369C76.0762 59.9369 76.6252 60.2699 77.0752 60.2939C77.5252 60.3179 78.0592 59.9009 78.0592 59.9009C78.0592 59.9009 77.6422 59.8559 77.1412 59.8469C76.6402 59.8349 76.0792 59.9399 76.0792 59.9399L76.0762 59.9369Z" fill="#EA8D78"/>
<path d="M77.3166 61.857C78.4266 61.791 79.1286 61.44 79.1286 61.44C79.1286 61.44 77.9436 61.314 77.6376 61.371C77.4486 61.407 77.3166 61.587 77.2446 61.719C77.1666 61.59 77.0286 61.416 76.8396 61.386C76.5336 61.338 75.3516 61.512 75.3516 61.512C75.3516 61.512 76.0686 61.833 77.1786 61.857V61.863C77.1996 61.863 77.2236 61.863 77.2476 61.86C77.2716 61.86 77.2926 61.86 77.3166 61.86V61.854V61.857Z" fill="#743F3D"/>
<path d="M75.6934 61.986C75.6934 61.986 75.9274 62.319 76.7914 62.529C77.6554 62.739 78.2824 62.382 78.8014 62.052C78.8014 62.052 78.3334 62.946 77.3584 63.066C76.3834 63.186 75.7294 62.118 75.6934 61.986Z" fill="#EA8D78"/>
<path d="M79.6314 50.043C79.6314 50.043 78.1464 49.257 76.1454 49.359C74.1444 49.461 72.5904 51.024 72.0114 52.131C71.4324 53.238 70.8444 53.553 70.8444 53.553C70.8444 53.553 71.0274 56.235 70.5144 57.378C70.5144 57.378 69.8214 56.22 69.0234 55.932C69.0234 55.932 68.3394 53.484 68.7594 50.877C69.1794 48.273 71.9424 45.465 75.6564 45.081C79.3734 44.697 81.2544 46.506 81.2544 46.506C81.2544 46.506 83.7234 47.898 84.4554 50.262C85.1904 52.626 84.5604 55.695 84.5604 55.695C84.5604 55.695 83.9244 56.016 83.5164 57.126C83.5164 57.126 82.3284 55.332 82.6344 53.322C82.6344 53.322 82.1484 50.127 79.6344 50.04L79.6314 50.043Z" fill="#743F3D"/>
<path d="M81.8437 47.841C81.0997 48.078 76.2907 45.474 76.2907 45.474C76.2907 45.474 76.2667 45.054 76.4017 44.508C76.5907 43.758 77.0797 42.768 78.3607 42.306C78.5797 42.228 78.7987 42.171 79.0087 42.132C80.9347 41.805 82.5337 43.125 82.9927 44.469C83.5027 45.963 82.5937 47.604 81.8467 47.838L81.8437 47.841Z" fill="#743F3D"/>
<path d="M75.6186 54.2279C75.6186 54.2279 76.0836 55.1009 76.3476 56.4269C76.6086 57.7529 76.3926 58.7039 76.3926 58.7039C76.3926 58.7039 76.1346 54.9539 74.2266 54.1589C74.2266 54.1589 75.2736 54.1349 75.6186 54.2279Z" fill="#EA8D78"/>
<path d="M79.6316 50.0429C79.6316 50.0429 77.2586 49.2479 75.2366 50.1269C73.2146 51.0059 73.2626 52.2869 71.8616 52.3979L71.6816 52.0619C71.6816 52.0619 72.0566 52.1339 72.9116 51.4589C73.7666 50.7839 75.5696 48.3599 79.6346 50.0429H79.6316Z" fill="#743F3D"/>
<path d="M69.977 120.897C69.977 120.897 68.036 121.146 67.358 121.275C67.358 121.275 64.646 120.885 63.506 120.936C62.366 120.984 61.745 122.34 61.1 123.813C60.458 125.286 57.962 126.852 57.083 127.77C56.201 128.685 56.177 130.029 56.198 130.314C56.216 130.599 55.643 131.409 55.946 132.072C56.249 132.738 56.576 132.516 56.855 132.438C57.137 132.363 57.332 131.892 57.332 131.892C57.332 131.892 58.049 131.928 58.355 131.796C58.661 131.661 58.397 131.592 59.081 131.547C59.762 131.502 60.128 131.418 60.545 131.247C60.962 131.076 63.818 128.112 65.366 127.323C66.911 126.534 69.296 126.717 69.296 126.717L69.974 120.897H69.977Z" fill="#FFA488"/>
<path d="M113.813 122.913C109.202 125.493 101.564 126.507 92.7262 127.044C91.6492 127.11 90.5572 127.17 89.4472 127.221L89.5972 131.055C89.5972 131.055 88.9252 131.049 87.7372 131.031C84.0922 130.989 75.5902 130.881 66.7282 130.701C52.3942 130.419 40.9942 126.861 37.7002 123.69C36.1132 122.16 35.1712 119.718 35.5072 117.438C35.7742 115.632 36.8452 113.931 39.0292 112.854C39.5482 112.596 40.4572 112.272 41.6872 111.921C45.5392 110.817 52.5112 109.485 60.2032 109.41C60.3262 109.401 60.4402 109.395 60.5512 109.383C61.5652 107.862 65.3122 104.001 65.3122 104.001C65.3122 104.001 67.9462 106.218 71.5492 107.535C73.4542 108.231 75.6292 108.678 77.8312 108.411C84.1942 107.643 90.5872 104.097 90.5872 104.097C91.8802 105.384 93.1192 108.408 93.1192 108.408C99.4882 108.468 110.036 110.4 112.307 111.537C112.322 111.546 112.337 111.558 112.349 111.564C113.891 111.978 115.175 112.875 116.054 114.015C118.094 116.652 117.959 120.597 113.813 122.91V122.913Z" fill="#E9835B"/>
<path d="M37.7758 108.345C37.7758 108.345 36.1738 108.099 35.5288 108.114C34.8868 108.126 33.5908 108.537 32.8558 108.66C32.1238 108.783 31.7578 108.81 31.7758 108.921C31.7938 109.032 32.0398 109.302 32.8498 109.416C33.6598 109.53 34.3528 109.314 34.7848 109.305C35.2168 109.296 35.3128 109.551 35.3128 109.551C35.3128 109.551 34.8748 110.718 33.4648 110.964C32.0548 111.213 31.4998 111.003 31.4038 110.802C31.3078 110.601 31.9078 109.23 31.7488 108.72C31.5928 108.21 31.3528 108.249 31.0558 109.065C30.7588 109.878 30.2398 110.661 30.2518 111.192C30.2638 111.723 31.1698 112.185 31.1698 112.185C31.1698 112.185 29.4208 111.981 28.8958 112.467C28.3738 112.956 29.4208 112.971 30.2488 113.046C31.0768 113.121 31.8538 113.364 32.3488 113.301C32.3488 113.301 30.1258 113.271 29.6908 113.628C29.2558 113.985 30.1438 114.225 30.9868 114.21C31.8328 114.195 32.9728 114.375 33.1588 114.369C33.1588 114.369 31.1788 114.609 31.2448 115.104C31.3108 115.599 31.6708 115.26 32.7568 115.368C33.8428 115.476 34.7428 115.458 35.7658 115.146C36.7888 114.831 40.8538 111.729 40.8538 111.729L37.7668 108.348L37.7758 108.345Z" fill="#FFA488"/>
<path d="M106.265 113.196C97.7933 114.399 74.0813 120.468 74.0813 120.468C74.0813 120.468 61.5893 114.75 53.2133 113.409C45.2603 112.137 40.6193 112.77 41.6843 111.921C45.5363 110.817 52.5083 109.485 60.2003 109.41C60.3233 109.401 60.4373 109.395 60.5483 109.383C61.5623 107.862 65.3093 104.001 65.3093 104.001C65.3093 104.001 67.9433 106.218 71.5463 107.535C71.8373 108.93 76.8323 115.806 80.4323 114.675C84.0323 113.55 88.7573 111.993 91.0163 112.77C93.2753 113.547 97.8623 113.121 101.024 112.41C104.183 111.699 106.259 113.19 106.259 113.19L106.265 113.196Z" fill="#CC6A4C"/>
<path d="M112.389 111.51C112.389 111.51 112.389 111.513 112.386 111.519C112.356 111.582 112.206 111.888 111.792 112.14C111.789 112.143 111.786 112.143 111.786 112.143L111.738 112.173C104.934 107.964 98.3699 101.694 96.7169 100.077C95.8679 99.3119 95.0699 98.3969 94.4519 97.3049C92.9999 94.7339 91.0379 89.9309 89.6699 86.4149L90.4559 79.8629C90.4559 79.8629 93.3959 92.5379 96.5039 96.6239C99.6089 100.707 112.392 111.51 112.392 111.51H112.389Z" fill="#3F2935"/>
<path d="M65.3814 87.474L64.9884 86.061L64.7784 85.299C63.3954 88.734 60.8454 94.857 59.0664 97.866C58.4274 98.946 57.6174 99.846 56.7474 100.593C55.0674 102.177 48.3714 108.33 41.4894 112.413L40.8594 111.726C40.8594 111.726 54.4194 100.146 58.4004 95.592C62.3784 91.038 64.8264 81.105 64.8264 81.105L65.3784 87.474H65.3814Z" fill="#3F2935"/>
<path d="M113.814 122.913C109.203 125.493 101.565 126.507 92.7268 127.044C89.0308 126.438 86.3938 124.998 86.3938 124.998V124.56L74.0938 120.474C74.1988 120.501 76.2208 119.931 76.2208 119.931C81.8218 121.179 95.6248 124.941 102.81 123.294C112.056 121.176 112.407 117.288 114.099 115.35C114.762 114.594 115.455 114.207 116.055 114.018C118.095 116.655 117.96 120.6 113.814 122.913Z" fill="#CC6A4C"/>
<path d="M86.3945 124.995C86.3945 124.995 88.3295 125.28 89.0045 125.424C89.0045 125.424 91.7225 125.088 92.8625 125.16C93.9995 125.232 94.5965 126.597 95.2115 128.082C95.8265 129.567 98.2895 131.181 99.1505 132.117C100.015 133.05 100.012 134.394 99.9845 134.679C99.9575 134.964 100.519 135.783 100.204 136.443C99.8885 137.103 99.5645 136.875 99.2855 136.791C99.0065 136.71 98.8175 136.236 98.8175 136.236C98.8175 136.236 98.1005 136.26 97.7975 136.119C97.4945 135.978 97.7585 135.915 97.0775 135.855C96.3965 135.795 96.0305 135.708 95.6195 135.528C95.2085 135.348 92.4065 132.33 90.8765 131.511C89.3465 130.692 86.9585 130.827 86.9585 130.827L86.3945 124.995Z" fill="#FFA488"/>
<path d="M115.542 108.189C115.542 108.189 117.15 107.976 117.792 108C118.434 108.024 119.724 108.459 120.453 108.597C121.182 108.735 121.548 108.768 121.527 108.876C121.503 108.984 121.254 109.251 120.444 109.35C119.631 109.449 118.941 109.218 118.512 109.203C118.08 109.185 117.978 109.44 117.978 109.44C117.978 109.44 118.392 110.613 119.799 110.889C121.203 111.162 121.764 110.964 121.863 110.766C121.962 110.568 121.389 109.185 121.557 108.678C121.725 108.171 121.962 108.216 122.241 109.035C122.52 109.854 123.024 110.646 123.003 111.177C122.982 111.708 122.064 112.152 122.064 112.152C122.064 112.152 123.816 111.981 124.332 112.479C124.845 112.977 123.798 112.974 122.97 113.034C122.139 113.094 121.359 113.322 120.867 113.247C120.867 113.247 123.09 113.259 123.519 113.625C123.945 113.991 123.054 114.213 122.211 114.183C121.368 114.15 120.222 114.309 120.036 114.303C120.036 114.303 122.01 114.582 121.938 115.074C121.863 115.566 121.509 115.224 120.423 115.311C119.334 115.398 118.437 115.365 117.42 115.032C116.403 114.699 112.398 111.519 112.398 111.519L115.548 108.195L115.542 108.189Z" fill="#FFA488"/>
<path d="M87.7372 131.031C84.0922 130.989 75.5902 130.881 66.7282 130.701C52.3942 130.419 40.9942 126.861 37.7002 123.69C36.1132 122.16 35.1712 119.718 35.5072 117.438C36.7192 118.38 39.0622 120.021 43.5262 122.253C50.8642 125.925 64.4122 127.902 75.1432 128.934C85.8712 129.969 86.8342 129.513 86.8342 129.513L87.7372 131.028V131.031Z" fill="#CC6A4C"/>
<path d="M80.2144 46.173C78.7654 45.465 76.4734 45.033 76.4734 45.033C76.4344 44.85 76.4104 44.676 76.3984 44.511C76.5874 43.761 77.0764 42.771 78.3574 42.309C78.5764 42.231 78.7954 42.174 79.0054 42.135C78.7624 42.384 78.5134 42.846 78.7324 43.614C79.1074 44.922 81.6604 46.878 80.2144 46.173Z" fill="#603030"/>
<path d="M78.8667 48.867C78.8667 48.867 76.1967 47.856 73.6437 48.867C71.0907 49.878 70.7337 52.605 70.1367 52.875C70.1367 52.875 70.6527 49.215 73.3977 48.42C76.1397 47.622 78.8667 48.87 78.8667 48.87V48.867Z" fill="#603030"/>
<path d="M80.886 47.184L79.875 49.461C79.875 49.461 81.255 48.834 80.886 47.184Z" fill="#603030"/>
</svg>
