<svg width="200" height="200" viewBox="0 0 200 200" fill="none" xmlns="http://www.w3.org/2000/svg">
<path d="M32.0318 174.328L31.8368 174.324C30.7093 174.287 24.8484 173.911 20.9439 170.251C16.9404 166.496 16.4626 161.098 16.4075 160.053C16.4022 159.954 16.3996 159.856 16.3998 159.758V130.356C16.3415 129.144 16.2632 125.053 17.6342 120.509C18.9477 116.152 20.5705 113.291 21.0353 112.519L35.7963 86.405C35.8701 86.274 35.9482 86.1474 36.0318 86.0241C36.492 85.3413 38.9662 81.8267 42.3587 79.716C45.9284 77.493 50.249 77.3211 51.4888 77.3211H144.73C144.85 77.3211 144.969 77.3246 145.091 77.3323C146.018 77.3917 150.831 77.7979 154.556 79.9286C158.112 81.9656 160.975 85.5252 161.513 86.2168C161.622 86.3585 161.724 86.5051 161.82 86.6562L179.351 114.436C179.426 114.559 179.502 114.686 179.57 114.817C179.906 115.462 181.639 118.871 182.517 122.187C183.383 125.467 183.592 129.092 183.624 129.784L183.629 130.021V159.427C183.649 160.982 183.362 166.318 178.936 170.283C174.744 174.035 169.101 174.326 167.472 174.326H32.0318V174.328ZM30.5299 118.478C30.2073 119.052 29.2041 120.949 28.3606 123.745C27.4699 126.7 27.5757 129.463 27.5899 129.769C27.5978 129.901 27.6026 130.034 27.6043 130.166V159.564L27.6153 159.645C27.6847 160.174 28.0073 161.454 28.5634 162.032L28.6383 162.112L28.7265 162.177C29.505 162.75 31.434 163.08 32.1077 163.12L167.48 163.122C168.604 163.109 170.567 162.735 171.457 161.938C172.252 161.224 172.431 160 172.431 159.804L172.42 159.464V130.193C172.359 129.051 172.138 126.775 171.68 125.051C171.161 123.081 170.001 120.721 169.773 120.27L169.71 120.16L152.506 92.8949L152.452 92.8299C151.8 92.0448 150.237 90.3667 148.988 89.651C147.907 89.0323 145.705 88.636 144.57 88.5302L144.453 88.5246H51.5086C50.6387 88.5323 49.0226 88.7624 48.2759 89.2293C47.2243 89.8846 45.9791 91.382 45.4671 92.0811L45.423 92.1418L30.7544 118.092L30.5959 118.358L30.5981 118.352C30.5938 118.365 30.5299 118.478 30.5299 118.478ZM99.4791 69.105C97.9937 69.1035 96.5695 68.5128 95.5191 67.4626C94.4686 66.4123 93.8777 64.9883 93.8759 63.5028V31.274C93.8777 29.789 94.4683 28.3652 95.5183 27.315C96.5683 26.2648 97.9919 25.6739 99.477 25.6719C100.963 25.6734 102.387 26.264 103.437 27.3142C104.488 28.3644 105.079 29.7885 105.081 31.274V63.5024C105.08 64.9877 104.489 66.4118 103.439 67.4621C102.389 68.5124 100.964 69.1031 99.4791 69.1046V69.105ZM137.041 68.8925C135.556 68.8905 134.132 68.2994 133.082 67.249C132.032 66.1985 131.441 64.7745 131.439 63.2891C131.44 62.0042 131.882 60.7586 132.691 59.76L145.498 43.9652C146.023 43.3157 146.686 42.7921 147.441 42.4331C148.195 42.0741 149.02 41.8888 149.855 41.8908C151.149 41.8908 152.368 42.3235 153.377 43.1416C153.95 43.6031 154.427 44.1741 154.778 44.8214C155.129 45.4686 155.347 46.1791 155.422 46.9117C155.501 47.6434 155.433 48.3835 155.224 49.0891C155.015 49.7946 154.668 50.4516 154.203 51.022L141.396 66.817C140.873 67.4664 140.211 67.9899 139.459 68.349C138.707 68.708 137.883 68.8934 137.05 68.8914H137.041V68.8925ZM62.5469 68.4641C61.7053 68.4664 60.8742 68.2777 60.116 67.9123C59.3579 67.5469 58.6926 67.0142 58.1701 66.3545L45.5804 50.5607C44.6557 49.3981 44.2299 47.9162 44.3964 46.44C44.563 44.9639 45.3084 43.6141 46.469 42.6869C47.4577 41.8925 48.6889 41.4611 49.9572 41.4648C51.6748 41.4648 53.2725 42.2342 54.3417 43.5755L66.9325 59.3691C67.8575 60.5312 68.2837 62.0128 68.1176 63.4888C67.9514 64.9648 67.2065 66.3146 66.0462 67.242C65.0539 68.0312 63.8239 68.4619 62.5559 68.4641H62.5469Z" fill="#E0E0E0"/>
<path d="M99.693 151.278C87.2113 151.278 76.3666 142.91 73.3231 130.931L73.0778 129.966L23.3233 129.936C21.8378 129.933 20.414 129.341 19.364 128.29C18.314 127.239 17.7232 125.815 17.7212 124.329C17.7235 122.845 18.3146 121.421 19.3647 120.372C20.4149 119.322 21.8385 118.731 23.3233 118.729L78.1107 118.765C79.5954 118.768 81.0181 119.36 82.0675 120.41C83.1169 121.461 83.7074 122.884 83.7098 124.369C83.7098 133.175 90.7302 140.073 99.693 140.073C108.624 140.073 115.62 133.176 115.62 124.369C115.623 122.884 116.214 121.461 117.264 120.41C118.314 119.36 119.737 118.768 121.222 118.765L175.502 118.73C178.593 118.73 181.104 121.24 181.106 124.328C181.108 127.417 178.597 129.933 175.509 129.937L126.258 129.967L126.012 130.933C122.972 142.911 112.15 151.278 99.693 151.278Z" fill="#E0E0E0"/>
</svg>
