<svg width="319" height="242" viewBox="0 0 319 242" fill="none" xmlns="http://www.w3.org/2000/svg">
<path d="M261.391 109.007C246.51 91.5632 226.098 80.3659 204.837 77.9846C183.577 75.6033 161.637 82.0551 144.053 95.8611C143.636 96.1895 143.222 96.5206 142.81 96.8546C150.249 73.3261 141.522 49.2048 115.754 43.9981C103.532 41.5285 89.5963 43.1403 78.3112 49.1588C63.8594 56.8701 51.7534 72.5348 46.5856 89.6974C41.6942 105.945 42.9139 128.604 57.0009 138.339C60.0782 140.464 63.4479 141.949 66.942 142.953C61.4467 145.843 56.4257 149.525 52.2819 154.731C45.5456 163.201 42.2631 174.635 41.3019 186.001C40.3406 197.368 42.0941 209.09 46.3931 220.728H282.878C285.382 183.2 285.946 137.79 261.391 109.007Z" fill="#F1F2F5"/>
<path d="M30.3135 214.976C32.7932 214.671 35.4068 214.233 37.8993 214.286C37.1273 209.894 36.8668 205.538 37.2081 201.075C41.4179 200.484 45.7212 201.85 49.1005 204.767C49.1908 199.42 50.3435 193.778 52.6382 189.111C57.2296 192.268 60.5621 197.434 62.6824 203.043C64.8027 208.651 66.0776 214.683 66.8294 220.728H33.3419C31.6001 219.469 30.6155 217.298 30.3135 214.976Z" fill="#F0C36A"/>
<path d="M49.1006 204.767C49.1789 205.395 49.2854 206.018 49.4196 206.634C49.5504 207.251 49.7067 207.859 49.88 208.46C50.2262 209.66 50.6579 210.826 51.1709 211.946C51.4261 212.506 51.7089 213.05 52.0056 213.582C52.3023 214.114 52.6277 214.626 52.9626 215.126C53.6529 216.121 54.4174 217.047 55.2477 217.893C54.3371 217.142 53.5101 216.268 52.785 215.29L52.5171 214.919C52.4256 214.798 52.3459 214.665 52.2597 214.538C52.0864 214.284 51.9301 214.018 51.7685 213.755C51.4587 213.219 51.1716 212.668 50.9072 212.101C50.6499 211.53 50.4127 210.948 50.2033 210.354C49.9944 209.759 49.812 209.154 49.6567 208.539C49.5014 207.924 49.374 207.3 49.275 206.67C49.176 206.042 49.1177 205.406 49.1006 204.767Z" fill="#1D2238"/>
<path d="M37.8994 214.291C38.1291 214.853 38.385 215.402 38.6661 215.933C38.9436 216.459 39.2556 216.96 39.5997 217.432C39.7699 217.668 39.9517 217.893 40.1441 218.106C40.3342 218.321 40.5355 218.523 40.747 218.711C41.1757 219.089 41.6439 219.406 42.141 219.653C41.5947 219.527 41.0755 219.28 40.613 218.927C40.148 218.572 39.7307 218.142 39.3743 217.651C39.1981 217.406 39.0331 217.15 38.8798 216.885C38.7288 216.62 38.5907 216.345 38.4662 216.062C38.2128 215.501 38.0224 214.906 37.8994 214.291Z" fill="#1D2238"/>
<path d="M164.32 220.704C163.262 211.964 166.434 203.068 171.396 196.29C176.359 189.512 182.974 184.575 189.719 180.224C191.433 188.342 190.582 197.266 187.256 204.708C188.313 202.248 190.427 200.546 192.687 199.604C194.946 198.663 197.373 198.394 199.768 198.133C201.342 203.215 200.586 209.239 197.405 213.236C201.513 211.869 206.097 211.605 210.288 212.606C210.673 215.28 210.607 218.04 209.982 220.655L164.32 220.704Z" fill="#F0C36A"/>
<path d="M187.253 204.708C187.023 205.562 186.741 206.397 186.409 207.207C186.08 208.02 185.716 208.814 185.317 209.586C184.923 210.36 184.486 211.108 184.028 211.836C183.57 212.565 183.071 213.261 182.555 213.942C182.039 214.622 181.479 215.254 180.905 215.869C180.608 216.166 180.32 216.474 180.013 216.754C179.861 216.896 179.712 217.044 179.556 217.181L179.084 217.587C178.929 217.725 178.765 217.849 178.605 217.979C178.444 218.11 178.286 218.242 178.117 218.358C177.784 218.6 177.455 218.842 177.112 219.061C176.432 219.507 175.727 219.904 175.003 220.249C176.355 219.365 177.642 218.36 178.853 217.244C179.452 216.683 180.031 216.097 180.589 215.487C181.143 214.871 181.68 214.236 182.192 213.574C182.703 212.912 183.192 212.228 183.659 211.524C184.126 210.82 184.569 210.096 184.997 209.358C185.424 208.62 185.824 207.86 186.199 207.084C186.575 206.309 186.934 205.521 187.253 204.708Z" fill="#1D2238"/>
<path d="M197.405 213.236C196.963 213.966 196.457 214.642 195.895 215.254C195.34 215.877 194.746 216.452 194.117 216.975L193.882 217.171L193.64 217.358C193.478 217.479 193.321 217.609 193.153 217.721C192.819 217.95 192.491 218.187 192.141 218.384C191.457 218.806 190.738 219.152 189.996 219.419C190.651 218.935 191.312 218.498 191.946 218.01C192.265 217.768 192.584 217.526 192.897 217.284C193.054 217.163 193.208 217.033 193.364 216.907L193.598 216.721L193.826 216.525C194.444 216.014 195.045 215.478 195.64 214.931C196.236 214.384 196.823 213.819 197.405 213.236Z" fill="#1D2238"/>
<path d="M170.814 137.912H62.438V174.737H170.814V137.912Z" fill="#1D2238"/>
<path d="M164.622 70.3784H68.803V179.414H164.622V70.3784Z" fill="white"/>
<path d="M164.729 179.536H68.6965V70.2573H164.729V179.536ZM68.9092 179.294H164.517V70.4993H68.9092V179.294Z" fill="#D2D6E1"/>
<path d="M175.016 217.762C175.229 217.175 175.337 216.545 175.335 215.91V142.737C175.335 138.913 171.607 136.614 168.791 138.7L128.42 168.612L116.707 156.258L104.996 168.612L64.6295 138.7C61.8127 136.614 58.0857 138.913 58.0857 142.737V215.91C58.0836 216.545 58.192 217.175 58.4047 217.762L58.5451 218.105C58.9002 218.895 59.44 219.558 60.1052 220.02C60.7703 220.483 61.5349 220.728 62.3146 220.728H171.106C171.886 220.728 172.651 220.483 173.316 220.02C173.981 219.558 174.521 218.895 174.876 218.105L175.016 217.762Z" fill="#D2D6E1"/>
<path d="M58.0857 216.56C62.9005 211.446 67.734 206.355 72.5864 201.287L79.8617 193.683L87.1509 186.098C92.0075 181.037 96.8754 175.989 101.755 170.956L116.394 155.857L116.713 155.528L117.032 155.857L131.672 170.955L138.978 178.521L146.275 186.097L153.564 193.684L160.84 201.289C165.682 206.371 170.515 211.462 175.34 216.562C170.383 211.627 165.445 206.666 160.526 201.679L153.145 194.208L145.783 186.723L138.424 179.221L131.073 171.712L116.399 156.657H117.037L102.363 171.711C97.4595 176.712 92.5558 181.714 87.6517 186.715L80.2817 194.205L72.9011 201.675C67.968 206.649 63.0295 211.611 58.0857 216.56Z" fill="#1D2238"/>
<path d="M78.0752 106.248C84.5403 106.014 91.0053 105.892 97.4704 105.81L99.8948 105.777L102.319 105.755L107.168 105.715L116.865 105.685L126.562 105.714L131.411 105.754L133.835 105.775L136.26 105.808C142.725 105.891 149.19 106.013 155.655 106.248C149.19 106.481 142.725 106.605 136.26 106.687L133.835 106.72L131.411 106.74L126.562 106.78L116.865 106.81L107.168 106.779L102.319 106.739L99.8948 106.717L97.4704 106.685C91.0053 106.601 84.5403 106.48 78.0752 106.248Z" fill="#D2D6E1"/>
<path d="M78.0752 115.572C84.5403 115.338 91.0053 115.217 97.4704 115.134L99.8948 115.101L102.319 115.079L107.168 115.041L116.865 115.009L126.562 115.038L131.411 115.078L133.835 115.1L136.26 115.133C142.725 115.215 149.19 115.337 155.655 115.572C149.19 115.807 142.725 115.935 136.26 116.011L133.835 116.044L131.411 116.066L126.562 116.106L116.865 116.135L107.168 116.103L102.319 116.064L99.8948 116.043L97.4704 116.01C91.0053 115.926 84.5403 115.805 78.0752 115.572Z" fill="#D2D6E1"/>
<path d="M78.0752 124.896C84.5403 124.664 91.0053 124.542 97.4704 124.459L99.8948 124.427L102.319 124.405L107.168 124.365L116.865 124.333L126.562 124.364L131.411 124.404L133.835 124.424L136.26 124.457C142.725 124.539 149.19 124.663 155.655 124.896C149.19 125.131 142.725 125.259 136.26 125.335L133.835 125.369L131.411 125.39L126.562 125.43L116.865 125.459L107.168 125.429L102.319 125.389L99.8948 125.367L97.4704 125.334C91.0053 125.252 84.5403 125.13 78.0752 124.896Z" fill="#D2D6E1"/>
<path d="M78.0752 134.222C84.5403 133.988 91.0053 133.866 97.4704 133.784L99.8948 133.751L102.319 133.729L107.168 133.689L116.865 133.659L126.562 133.688L131.411 133.728L133.835 133.749L136.26 133.783C142.725 133.865 149.19 133.987 155.655 134.222C149.19 134.455 142.725 134.585 136.26 134.661L133.835 134.694L131.411 134.714L126.562 134.754L116.865 134.785L107.168 134.753L102.319 134.713L99.8948 134.691L97.4704 134.659C91.0053 134.576 84.5403 134.454 78.0752 134.222Z" fill="#D2D6E1"/>
<path d="M78.0752 143.546C84.5403 143.313 91.0053 143.192 97.4704 143.108L99.8948 143.075L102.319 143.054L107.168 143.015L116.865 142.983L126.562 143.012L131.411 143.052L133.835 143.074L136.26 143.107C142.725 143.189 149.19 143.311 155.655 143.546C149.19 143.781 142.725 143.909 136.26 143.985L133.835 144.018L131.411 144.04L126.562 144.08L116.865 144.109L107.168 144.077L102.319 144.039L99.8948 144.017L97.4704 143.984C91.0053 143.901 84.5403 143.78 78.0752 143.546Z" fill="#D2D6E1"/>
<path d="M64.6559 138.653L69.5739 142.162L74.4875 145.671L84.2915 152.734L86.7456 154.493L89.2041 156.245C90.8416 157.416 92.4632 158.615 94.0688 159.842L96.4677 161.698C97.262 162.328 98.0627 162.946 98.8496 163.585C100.433 164.851 102.006 166.136 103.548 167.471L103.494 167.566C101.793 166.501 100.128 165.388 98.47 164.249C97.6384 163.687 96.8175 163.105 95.9903 162.532L93.5287 160.787C91.8925 159.614 90.2727 158.411 88.6692 157.18L86.2671 155.33L83.8598 153.489L74.2206 146.14L69.4112 142.447L64.606 138.747L64.6559 138.653Z" fill="#1D2238"/>
<path d="M132.155 165.849C135.096 163.391 138.092 161.027 141.105 158.695C144.119 156.364 147.154 154.067 150.205 151.798C153.257 149.529 156.329 147.302 159.426 145.114C162.522 142.926 165.63 140.758 168.797 138.701C165.855 141.161 162.861 143.525 159.847 145.857C156.832 148.189 153.799 150.485 150.746 152.748C147.692 155.011 144.622 157.243 141.525 159.43C138.429 161.616 135.32 163.782 132.155 165.849Z" fill="#1D2238"/>
<path d="M84.2586 95.8092C84.0705 96.1687 83.8057 96.4684 83.4888 96.6804C83.1632 96.8744 82.7992 96.9698 82.4318 96.9575C81.8222 96.9575 81.3564 96.7603 81.0346 96.3658C80.7128 95.9714 80.5515 95.4027 80.5508 94.6597C80.5508 93.5973 80.8272 92.6971 81.3802 91.959C81.9331 91.2209 82.6002 90.8518 83.3814 90.8518C83.6928 90.8392 84.0016 90.9202 84.2767 91.0866C84.5321 91.2627 84.7383 91.5179 84.8711 91.8223L85.2018 91.0902H86.1301L85.2411 95.0977C85.2411 95.1207 85.2326 95.1473 85.2284 95.18C85.2107 95.2631 85.199 95.3477 85.1933 95.4329C85.1905 95.5116 85.2033 95.5899 85.2307 95.6622C85.2582 95.7344 85.2995 95.7987 85.3517 95.8504C85.4694 95.9593 85.6181 96.0153 85.7696 96.0077C85.9971 96.0002 86.2193 95.9283 86.4161 95.7983C86.6559 95.6482 86.8716 95.4531 87.0541 95.2212C87.3434 94.8724 87.568 94.4609 87.7145 94.0112C87.8671 93.5382 87.9427 93.0376 87.9378 92.5337C87.9378 91.381 87.5631 90.4441 86.8138 89.7229C86.0645 89.0018 85.0852 88.6416 83.8758 88.6424C83.3571 88.638 82.84 88.7092 82.3372 88.8541C81.879 88.9885 81.4428 89.2059 81.0452 89.4979C80.3443 89.9841 79.7667 90.6697 79.3694 91.4871C78.9728 92.315 78.7699 93.245 78.7803 94.1878C78.7803 95.6108 79.2 96.7482 80.0393 97.6C80.8786 98.4519 81.9973 98.8782 83.3952 98.879C84.0543 98.8802 84.7098 98.7672 85.339 98.5438C85.9627 98.3246 86.5533 97.9982 87.0903 97.5758L87.4912 98.2522C86.331 99.2692 84.9054 99.8156 83.4409 99.8046C82.7274 99.813 82.0167 99.7025 81.3313 99.4767C80.7215 99.2742 80.1495 98.9461 79.6438 98.5087C79.0545 98.0159 78.5773 97.37 78.2518 96.6248C77.9366 95.8607 77.7795 95.0245 77.7925 94.1806C77.7892 93.4509 77.8949 92.7258 78.1051 92.0364C78.314 91.3593 78.6249 90.7288 79.0238 90.173C79.5957 89.373 80.3239 88.7362 81.1505 88.3133C82.0216 87.8793 82.9643 87.6626 83.9152 87.678C84.5562 87.6736 85.1942 87.7785 85.8079 87.989C86.361 88.1708 86.8803 88.466 87.3402 88.8602C87.8398 89.2864 88.2469 89.8374 88.53 90.4707C88.8012 91.1118 88.937 91.8162 88.9267 92.5277C88.9313 93.2404 88.7981 93.9456 88.5364 94.5932C88.2811 95.2241 87.9003 95.7788 87.4242 96.2134C87.1544 96.4608 86.8494 96.654 86.5225 96.7845C86.1984 96.9147 85.857 96.9806 85.5134 96.9793C85.088 96.9793 84.7736 96.8869 84.5702 96.7022C84.366 96.5183 84.2639 96.2315 84.2639 95.8443L84.2586 95.8092ZM84.6127 92.9052C84.5774 92.5709 84.4475 92.2588 84.2427 92.0159C84.1447 91.9102 84.0291 91.828 83.9027 91.774C83.7763 91.7199 83.6417 91.6952 83.5068 91.7013C82.9986 91.7013 82.563 91.9941 82.2 92.5797C81.8371 93.1654 81.6559 93.8732 81.6566 94.7033C81.6566 95.1498 81.747 95.4934 81.9299 95.7354C82.0261 95.8584 82.1456 95.9549 82.2793 96.0178C82.413 96.0807 82.5575 96.1082 82.7019 96.0984C83.0685 96.0953 83.4201 95.9325 83.6844 95.6434C83.9845 95.3286 84.193 94.917 84.282 94.4637L84.6127 92.9052Z" fill="#1D2238"/>
<path d="M150.64 88.2524H97.4907C94.8292 88.2524 92.6716 90.7076 92.6716 93.7362V93.7374C92.6716 96.766 94.8292 99.2211 97.4907 99.2211H150.64C153.302 99.2211 155.459 96.766 155.459 93.7374V93.7362C155.459 90.7076 153.302 88.2524 150.64 88.2524Z" fill="#F1F2F5"/>
<path d="M232.933 63.4038L232.578 69.3522L230.366 106.342C223.454 105.697 216.917 105.592 220.316 90.5054L226.165 63.8854L232.933 63.4038Z" fill="#EB9481"/>
<path d="M231.732 63.2687L231.284 64.3202C230.685 65.7238 229.263 66.5163 227.915 66.2477C227.864 66.2372 227.814 66.2219 227.765 66.2017L226.773 65.8L227.656 60.856L231.732 63.2687Z" fill="#1D2238"/>
<path d="M232.823 209.88L221.033 215.83C220.173 216.264 219.446 216.979 218.942 217.884C218.439 218.788 218.183 219.842 218.207 220.912L243.91 220.663L242.482 209.783L232.823 209.88Z" fill="#F0C36A"/>
<path d="M243.897 218.724C241.78 218.879 239.663 218.966 237.546 219.038C236.487 219.078 235.428 219.095 234.37 219.123L231.194 219.171L228.018 219.185C226.955 219.177 225.9 219.185 224.841 219.161C222.723 219.135 220.606 219.085 218.486 218.97C220.603 218.815 222.719 218.728 224.838 218.657C225.896 218.616 226.955 218.6 228.013 218.572L231.189 218.524L234.365 218.51C235.428 218.518 236.483 218.51 237.542 218.534C239.659 218.561 241.778 218.611 243.897 218.724Z" fill="#1D2238"/>
<path d="M240.473 215.751C241.109 214.475 240.716 212.854 239.595 212.13C238.474 211.406 237.05 211.852 236.413 213.128C235.777 214.403 236.169 216.025 237.29 216.749C238.411 217.473 239.836 217.026 240.473 215.751Z" fill="#1D2238"/>
<path d="M222.622 214.759C222.898 214.632 223.2 214.597 223.493 214.659C223.771 214.712 224.036 214.829 224.272 215.004C224.514 215.182 224.719 215.418 224.873 215.697C225.038 215.991 225.111 216.34 225.08 216.687L225.031 216.719C224.962 216.601 224.887 216.487 224.806 216.379C224.765 216.326 224.729 216.268 224.684 216.218L224.554 216.067C224.372 215.872 224.174 215.698 223.962 215.547C223.753 215.391 223.534 215.252 223.307 215.133C223.194 215.072 223.079 215.012 222.961 214.967C222.843 214.922 222.727 214.863 222.608 214.822L222.622 214.759Z" fill="#1D2238"/>
<path d="M225.631 213.272C225.907 213.145 226.21 213.11 226.503 213.172C226.78 213.225 227.045 213.343 227.281 213.517C227.524 213.695 227.728 213.931 227.881 214.21C228.048 214.503 228.123 214.852 228.094 215.2L228.045 215.232C227.976 215.114 227.9 215.001 227.819 214.892C227.779 214.839 227.743 214.781 227.698 214.732L227.567 214.58C227.385 214.385 227.187 214.211 226.976 214.06C226.767 213.904 226.548 213.765 226.321 213.646C226.207 213.586 226.092 213.525 225.974 213.48C225.859 213.425 225.741 213.377 225.621 213.335L225.631 213.272Z" fill="#1D2238"/>
<path d="M228.416 211.922C228.692 211.795 228.995 211.76 229.288 211.821C229.565 211.875 229.83 211.993 230.066 212.167C230.309 212.345 230.514 212.582 230.666 212.861C230.833 213.154 230.908 213.503 230.878 213.851L230.83 213.883C230.761 213.765 230.685 213.651 230.604 213.543C230.564 213.489 230.527 213.432 230.483 213.381L230.352 213.23C230.17 213.035 229.972 212.861 229.761 212.711C229.552 212.554 229.333 212.415 229.106 212.296C228.992 212.236 228.876 212.175 228.759 212.13C228.642 212.085 228.525 212.026 228.406 211.985L228.416 211.922Z" fill="#1D2238"/>
<path d="M229.144 120.181L228.735 209.798H244.603L248.45 118.813L229.144 120.181Z" fill="#1D2238"/>
<path d="M269.153 200.577L257.104 157.727L252.94 115.159L234.068 119.987L239.802 162.09L254.29 206.9L269.153 200.577Z" fill="#1D2238"/>
<path d="M225.95 52.6702C225.95 52.6702 223.213 49.3003 225.578 44.8778C227.943 40.4552 234.794 40.8569 235.567 42.9648L225.95 52.6702Z" fill="#1D2238"/>
<path d="M233.762 43.7812H233.761C229.447 43.7812 225.95 47.7608 225.95 52.6699V55.8462C225.95 60.7552 229.447 64.7348 233.761 64.7348H233.762C238.076 64.7348 241.573 60.7552 241.573 55.8462V52.6699C241.573 47.7608 238.076 43.7812 233.762 43.7812Z" fill="#EB9481"/>
<path d="M241.612 51.9592L233.211 53.4922L235.574 70.2651L243.976 68.7321L241.612 51.9592Z" fill="#EB9481"/>
<path d="M231.029 51.8726C231.09 52.102 231.139 52.3351 231.176 52.5708C231.199 52.6918 231.212 52.8043 231.228 52.9204C231.244 53.0366 231.261 53.1528 231.271 53.2689L231.306 53.6186C231.317 53.7396 231.321 53.8509 231.328 53.9683L231.35 54.3168L231.36 54.6665L231.372 55.0621H231.009C230.88 55.0621 230.749 55.0621 230.619 55.0621H230.46C230.428 55.0654 230.398 55.0723 230.368 55.0827C230.307 55.1079 230.252 55.1494 230.209 55.2037C230.163 55.2648 230.134 55.3389 230.123 55.4179C230.109 55.5052 230.118 55.5953 230.149 55.6768C230.167 55.7212 230.188 55.7637 230.212 55.8039C230.241 55.8442 230.274 55.8804 230.311 55.9116C230.351 55.9425 230.394 55.9689 230.439 55.9902C230.498 56.0104 230.558 56.0265 230.619 56.0386C230.749 56.0725 230.88 56.1076 231.009 56.1596H231.016C231.02 56.1618 231.023 56.1653 231.025 56.1697C231.027 56.1742 231.028 56.1792 231.027 56.1841C231.026 56.189 231.024 56.1935 231.021 56.197C231.018 56.2004 231.014 56.2026 231.009 56.2032L230.619 56.2092C230.553 56.2092 230.489 56.2092 230.42 56.2092C230.352 56.2009 230.286 56.1821 230.222 56.1536C230.095 56.0927 229.987 55.9905 229.91 55.8597C229.834 55.729 229.793 55.5755 229.793 55.4185C229.793 55.2615 229.834 55.108 229.91 54.9772C229.987 54.8465 230.095 54.7443 230.222 54.6834C230.286 54.6543 230.353 54.6348 230.421 54.6253C230.491 54.6181 230.555 54.6253 230.621 54.6193H231.011L230.974 54.6628V53.2653C230.974 52.8007 230.981 52.3348 230.987 51.869C230.987 51.8632 230.989 51.8576 230.993 51.8536C230.996 51.8495 231.001 51.8472 231.006 51.8472C231.01 51.847 231.014 51.8485 231.018 51.8514C231.021 51.8543 231.023 51.8583 231.024 51.8629L231.029 51.8726Z" fill="#1D2238"/>
<path d="M234.852 50.6762C234.795 50.9037 234.294 50.94 233.733 50.7573C233.173 50.5746 232.764 50.2431 232.821 50.0156C232.878 49.7881 233.379 49.7518 233.94 49.9333C234.5 50.1148 234.909 50.4488 234.852 50.6762Z" fill="#1D2238"/>
<path d="M229.822 49.8579C229.87 50.0878 229.45 50.4012 228.884 50.5573C228.317 50.7134 227.82 50.6541 227.768 50.4242C227.716 50.1943 228.139 49.8809 228.706 49.7248C229.273 49.5687 229.773 49.628 229.822 49.8579Z" fill="#1D2238"/>
<path d="M233.739 52.7449C233.739 52.8529 233.71 52.9584 233.658 53.0481C233.605 53.1378 233.53 53.2078 233.443 53.2491C233.355 53.2904 233.259 53.3012 233.166 53.2801C233.072 53.2591 232.987 53.2071 232.92 53.1308C232.853 53.0545 232.807 52.9572 232.789 52.8514C232.77 52.7455 232.78 52.6358 232.816 52.5361C232.852 52.4364 232.914 52.3511 232.993 52.2912C233.072 52.2312 233.164 52.1992 233.259 52.1992C233.386 52.1992 233.508 52.2567 233.598 52.3591C233.688 52.4614 233.739 52.6002 233.739 52.7449Z" fill="#1D2238"/>
<path d="M229.565 52.7449C229.565 52.8529 229.537 52.9585 229.484 53.0482C229.431 53.138 229.356 53.2079 229.269 53.2492C229.181 53.2905 229.085 53.3012 228.992 53.2801C228.899 53.2589 228.813 53.2068 228.746 53.1304C228.679 53.0539 228.633 52.9566 228.615 52.8507C228.597 52.7447 228.606 52.635 228.643 52.5353C228.679 52.4356 228.741 52.3504 228.82 52.2906C228.899 52.2308 228.992 52.199 229.087 52.1992C229.214 52.1995 229.335 52.2572 229.425 52.3595C229.515 52.4618 229.565 52.6004 229.565 52.7449Z" fill="#1D2238"/>
<path d="M234.773 64.6588C234.773 64.6588 237.538 64.153 238.698 62.8232C238.698 62.8232 238.322 65.3509 235.032 66.4944L234.773 64.6588Z" fill="#1D2238"/>
<path d="M232.026 44.0019C232.026 44.0019 234.336 52.0798 240.628 53.3189L243.249 51.8765C243.249 51.8765 243.956 37.8115 232.026 44.0019Z" fill="#1D2238"/>
<path d="M242.184 55.5052C243.043 55.5052 243.74 54.5247 243.74 53.3151C243.74 52.1055 243.043 51.125 242.184 51.125C241.325 51.125 240.628 52.1055 240.628 53.3151C240.628 54.5247 241.325 55.5052 242.184 55.5052Z" fill="#EB9481"/>
<path d="M241.258 52.6956C241.277 52.4664 241.367 52.2523 241.511 52.0906C241.591 52.004 241.683 51.9332 241.784 51.8812C241.892 51.8293 242.009 51.8014 242.126 51.799C242.368 51.7947 242.604 51.8886 242.791 52.064C242.881 52.1474 242.96 52.2438 243.028 52.3507C243.092 52.4562 243.145 52.5694 243.186 52.6883C243.225 52.8056 243.253 52.9273 243.268 53.0513C243.275 53.113 243.28 53.1723 243.281 53.2352C243.281 53.2667 243.281 53.2969 243.281 53.3272C243.281 53.3574 243.281 53.3925 243.275 53.4349C243.267 53.5383 243.239 53.6386 243.194 53.7289C243.162 53.7923 243.119 53.8475 243.067 53.8911C243.017 53.9337 242.96 53.9645 242.899 53.9818C242.816 54.0036 242.73 54.0036 242.647 53.9818C242.591 53.9669 242.535 53.9462 242.481 53.9201C242.313 53.8338 242.154 53.7276 242.005 53.6031C241.869 53.483 241.725 53.3769 241.572 53.2861H241.564C241.562 53.285 241.559 53.2835 241.558 53.2815C241.556 53.2794 241.555 53.277 241.554 53.2744C241.553 53.2717 241.553 53.2689 241.553 53.2661C241.553 53.2633 241.554 53.2606 241.555 53.2582C241.557 53.2546 241.559 53.2516 241.562 53.2494C241.565 53.2473 241.569 53.2462 241.572 53.2461C241.932 53.2619 242.239 53.4821 242.564 53.5837C242.64 53.6135 242.722 53.6206 242.8 53.6043C242.835 53.5896 242.864 53.5623 242.883 53.5269C242.902 53.4914 242.911 53.4497 242.907 53.4083C242.912 53.2173 242.883 53.0272 242.822 52.8492C242.763 52.6711 242.669 52.5111 242.546 52.3822C242.424 52.2537 242.268 52.1739 242.102 52.1547C241.935 52.1394 241.769 52.1885 241.63 52.2939C241.488 52.3992 241.373 52.5442 241.295 52.7149C241.292 52.7198 241.288 52.7235 241.284 52.725C241.279 52.7266 241.274 52.726 241.269 52.7234C241.266 52.7215 241.263 52.7185 241.262 52.7148C241.26 52.7111 241.259 52.707 241.26 52.7028L241.258 52.6956Z" fill="#1D2238"/>
<path d="M232.634 44.1167C232.634 44.1167 230.692 46.2318 231.509 49.4564C231.509 49.4564 229.27 45.6341 231.81 43.4282L232.634 44.1167Z" fill="#1D2238"/>
<path d="M243.974 67.2822C247.965 86.7632 252.214 105.717 255.893 121.11C246.706 127.516 231.937 125.755 226.161 123.755C226.001 123.7 225.253 110.186 226.087 98.4821C226.924 86.7197 229.299 74.1611 235.566 69.3356C238.372 68.6725 241.176 67.9707 243.974 67.2822Z" fill="#F0C36A"/>
<path d="M245.815 180.746C245.258 179.214 244.729 177.672 244.187 176.134C243.645 174.596 243.134 173.046 242.607 171.503L241.819 169.186L241.058 166.859L239.528 162.205L239.521 162.185L239.516 162.157C239.142 160.173 238.802 158.181 238.452 156.192L237.416 150.222L236.432 144.238C236.271 143.241 236.121 142.24 235.964 141.241L235.731 139.743L235.51 138.241L235.544 138.233L239.836 162.082L245.843 180.733L245.815 180.746Z" fill="#4A4E60"/>
<path d="M258.411 204.377L248.557 213.847C247.838 214.537 247.315 215.456 247.055 216.485C246.795 217.514 246.809 218.608 247.095 219.628L271.71 211.199L267.661 201.209L258.411 204.377Z" fill="#F0C36A"/>
<path d="M271.219 209.341C269.224 210.164 267.215 210.925 265.2 211.664C264.193 212.04 263.179 212.39 262.171 212.753L259.134 213.812L256.088 214.837C255.069 215.167 254.055 215.508 253.033 215.826C250.993 216.476 248.948 217.103 246.886 217.668C248.879 216.844 250.889 216.083 252.905 215.342C253.911 214.966 254.926 214.616 255.933 214.253L258.971 213.196L262.016 212.171C263.035 211.841 264.05 211.499 265.072 211.181C267.109 210.54 269.157 209.906 271.219 209.341Z" fill="#1D2238"/>
<path d="M266.471 208.991C267.44 208.024 267.538 206.346 266.688 205.243C265.839 204.139 264.364 204.028 263.395 204.995C262.425 205.962 262.328 207.64 263.177 208.743C264.027 209.846 265.501 209.957 266.471 208.991Z" fill="#1D2238"/>
<path d="M249.818 212.312C250.053 212.102 250.335 211.972 250.632 211.938C250.911 211.901 251.194 211.929 251.463 212.021C251.739 212.116 251.993 212.278 252.208 212.497C252.439 212.726 252.595 213.037 252.651 213.38L252.612 213.427C252.516 213.336 252.416 213.25 252.312 213.172C252.259 213.134 252.206 213.09 252.156 213.051L251.992 212.948C251.77 212.818 251.538 212.714 251.297 212.637C251.058 212.554 250.814 212.49 250.566 212.447C250.443 212.427 250.318 212.41 250.193 212.399C250.067 212.388 249.943 212.374 249.818 212.372V212.312Z" fill="#1D2238"/>
<path d="M252.342 209.925C252.576 209.716 252.858 209.586 253.154 209.551C253.434 209.514 253.717 209.543 253.987 209.635C254.262 209.729 254.517 209.891 254.731 210.109C254.962 210.339 255.118 210.651 255.175 210.994L255.135 211.041C255.04 210.949 254.94 210.864 254.835 210.786C254.783 210.747 254.729 210.703 254.68 210.665L254.516 210.561C254.294 210.431 254.061 210.328 253.821 210.251C253.582 210.167 253.338 210.103 253.09 210.061C252.967 210.04 252.842 210.023 252.717 210.012C252.592 209.996 252.467 209.988 252.342 209.986V209.925Z" fill="#1D2238"/>
<path d="M254.683 207.742C254.917 207.532 255.199 207.402 255.496 207.368C255.775 207.331 256.058 207.36 256.328 207.452C256.604 207.546 256.858 207.708 257.072 207.926C257.303 208.156 257.46 208.467 257.516 208.811L257.476 208.857C257.381 208.765 257.281 208.68 257.177 208.603C257.125 208.564 257.07 208.52 257.02 208.482L256.858 208.379C256.635 208.25 256.402 208.145 256.162 208.068C255.923 207.984 255.679 207.921 255.432 207.879C255.307 207.858 255.183 207.841 255.058 207.829C254.934 207.817 254.808 207.805 254.683 207.803V207.742Z" fill="#1D2238"/>
<path d="M231.861 58.6584C231.401 58.8108 229.64 58.933 229.506 58.4091L232.452 57.4351C232.586 57.959 232.428 58.5095 231.861 58.6584Z" fill="white"/>
<path d="M247.551 72.334L250.741 95.1062L236.332 96.2133C236.332 96.2133 232.634 67.6852 243.974 67.2822C244.906 67.6969 245.725 68.3812 246.353 69.2672C246.98 70.1533 247.393 71.2104 247.551 72.334Z" fill="#F0C36A"/>
<path d="M206.117 69.0893L194.756 73.4404L222.496 167.237L233.857 162.886L206.117 69.0893Z" fill="#D2D6E1"/>
<path d="M233.857 162.886L222.495 167.237L224.646 174.509L236.008 170.158L233.857 162.886Z" fill="white"/>
<path d="M232.402 179.334C230.896 179.911 229.249 179.783 227.825 178.979C226.401 178.175 225.316 176.76 224.809 175.046L224.648 174.502L236.01 170.146L236.171 170.69C236.422 171.539 236.524 172.436 236.471 173.33C236.418 174.224 236.21 175.098 235.86 175.9C235.51 176.703 235.025 177.42 234.431 178.009C233.838 178.598 233.149 179.048 232.402 179.334Z" fill="#D2D6E1"/>
<path d="M229.428 164.575C228.79 162.708 228.186 160.83 227.574 158.954L226.658 156.14L225.762 153.318L225.314 151.907L224.873 150.493L223.992 147.665C223.697 146.724 223.406 145.78 223.12 144.834L222.255 142L222.148 141.645L222.405 141.386C222.869 140.918 223.178 140.284 223.281 139.588C223.333 139.245 223.333 138.895 223.281 138.552C223.263 138.468 223.251 138.382 223.23 138.297C223.21 138.215 223.187 138.134 223.16 138.055L223.075 137.813L222.968 137.582C222.662 136.976 222.18 136.51 221.606 136.263C221.031 136.016 220.399 136.003 219.817 136.226C219.235 136.449 218.739 136.894 218.412 137.486C218.086 138.079 217.951 138.781 218.028 139.474L218.066 139.731L218.127 139.983C218.144 140.069 218.179 140.146 218.202 140.225C218.226 140.303 218.266 140.382 218.297 140.467C218.438 140.776 218.623 141.056 218.847 141.294C219.299 141.778 219.882 142.07 220.5 142.124L220.842 142.155L220.948 142.509L221.766 145.362L222.174 146.788L222.575 148.217L223.377 151.076L223.776 152.505L224.169 153.938L224.956 156.802L225.721 159.673C226.231 161.588 226.746 163.5 227.231 165.425L227.175 165.447L220.427 142.709L220.473 142.749C219.913 142.71 219.372 142.507 218.902 142.16C218.432 141.813 218.049 141.333 217.79 140.767C217.752 140.671 217.708 140.577 217.674 140.479C217.64 140.381 217.603 140.284 217.58 140.181C217.558 140.078 217.528 139.978 217.505 139.875L217.457 139.563C217.356 138.715 217.518 137.853 217.915 137.126C218.311 136.399 218.918 135.852 219.631 135.579C220.344 135.306 221.118 135.324 221.82 135.63C222.523 135.936 223.109 136.51 223.48 137.255L223.607 137.538C223.644 137.635 223.677 137.734 223.714 137.832C223.751 137.93 223.769 138.035 223.798 138.135C223.826 138.235 223.838 138.342 223.858 138.445C223.952 139.073 223.902 139.719 223.712 140.319C223.522 140.919 223.199 141.453 222.775 141.869L222.79 141.806L229.497 164.554L229.428 164.575Z" fill="#1D2238"/>
<path d="M194.696 73.3347L194.59 71.9178L194.507 70.4996L194.343 67.6634L194.21 64.8272C194.167 63.8821 194.136 62.9359 194.098 61.9909L194.044 60.5716L194 59.1535L193.915 56.316L193.79 50.6399L193.747 48.6543L194.766 50.266C195.737 51.8027 196.716 53.3334 197.681 54.8737L199.122 57.1921L199.841 58.3524L200.551 59.5201C201.023 60.2993 201.502 61.0725 201.969 61.8566L203.37 64.2076L204.752 66.578L205.436 67.7602L206.109 68.9581L206.061 68.998L194.286 50.6677L194.392 50.6266L194.754 73.3335L194.696 73.3347Z" fill="#1D2238"/>
<path d="M206.782 71.4759L195.793 75.6855C195.504 75.796 195.188 75.7714 194.915 75.6171C194.642 75.4628 194.434 75.1914 194.337 74.8627C194.24 74.5341 194.261 74.175 194.397 73.8644C194.532 73.5538 194.77 73.317 195.059 73.2062L206.048 68.9978C206.191 68.9429 206.342 68.9206 206.493 68.9322C206.644 68.9438 206.791 68.989 206.926 69.0653C207.061 69.1416 207.182 69.2475 207.281 69.3769C207.38 69.5063 207.456 69.6566 207.504 69.8194C207.552 69.9821 207.572 70.1541 207.562 70.3254C207.552 70.4967 207.512 70.6641 207.445 70.8179C207.378 70.9718 207.285 71.1091 207.171 71.222C207.057 71.3349 206.925 71.4212 206.782 71.4759Z" fill="#1D2238"/>
<path d="M235.169 163.755C235.072 163.427 234.863 163.156 234.591 163.001C234.318 162.847 234.002 162.823 233.713 162.934L222.724 167.142C222.435 167.252 222.196 167.489 222.061 167.8C221.925 168.11 221.903 168.47 222.001 168.798C222.081 169.068 222.236 169.301 222.443 169.462C222.65 169.622 222.898 169.701 223.148 169.687C222.933 169.84 222.769 170.071 222.681 170.342C222.593 170.614 222.587 170.911 222.664 171.186C222.74 171.462 222.895 171.701 223.104 171.866C223.312 172.031 223.563 172.113 223.817 172.098C223.578 172.268 223.402 172.531 223.322 172.839C223.243 173.147 223.266 173.477 223.387 173.767C223.507 174.056 223.717 174.286 223.977 174.41C224.236 174.535 224.527 174.547 224.794 174.444L235.784 170.235C236.045 170.132 236.264 169.926 236.403 169.655C236.541 169.383 236.589 169.063 236.537 168.755C236.486 168.446 236.338 168.169 236.122 167.974C235.905 167.779 235.634 167.68 235.358 167.694C235.573 167.54 235.737 167.309 235.825 167.038C235.913 166.766 235.919 166.47 235.842 166.194C235.766 165.918 235.611 165.679 235.403 165.514C235.194 165.349 234.943 165.268 234.689 165.282C234.909 165.126 235.075 164.89 235.162 164.613C235.249 164.336 235.252 164.034 235.169 163.755Z" fill="#1D2238"/>
<path d="M229.241 59.4325L227.6 58.9812C227.336 58.9087 227.057 58.9586 226.825 59.12C226.593 59.2813 226.427 59.5409 226.363 59.8415C226.313 60.082 226.33 60.3347 226.414 60.5631C226.497 60.7914 226.642 60.9837 226.828 61.112L226.748 61.0902C226.618 61.0542 226.482 61.0478 226.349 61.0714C226.216 61.0951 226.088 61.1483 225.974 61.2281C225.859 61.3079 225.759 61.4127 225.68 61.5364C225.6 61.6602 225.543 61.8005 225.512 61.9493C225.451 62.237 225.488 62.5403 225.616 62.7977C225.745 63.0551 225.955 63.2471 226.203 63.3348C225.969 63.377 225.755 63.5102 225.597 63.7117C225.44 63.9132 225.349 64.1705 225.339 64.4399C225.33 64.7094 225.402 64.9742 225.545 65.1894C225.688 65.4047 225.892 65.557 226.122 65.6205L227.763 66.0718C227.992 66.1345 228.234 66.105 228.447 65.9883C228.66 65.8717 228.83 65.675 228.93 65.4316C229.03 65.1881 229.054 64.9129 228.996 64.6523C228.938 64.3917 228.803 64.1618 228.613 64.0015L228.73 64.0342C228.861 64.0701 228.997 64.0763 229.13 64.0526C229.263 64.0288 229.39 63.9755 229.505 63.8956C229.62 63.8158 229.72 63.711 229.799 63.5873C229.878 63.4636 229.935 63.3233 229.967 63.1745C229.998 63.0257 230.004 62.8712 229.983 62.72C229.962 62.5688 229.915 62.4237 229.845 62.2931C229.775 62.1625 229.683 62.0489 229.574 61.9587C229.465 61.8686 229.342 61.8038 229.211 61.7678L229.072 61.7291C229.289 61.7116 229.495 61.616 229.661 61.4561C229.827 61.2962 229.944 61.0803 229.995 60.8398C230.059 60.5394 230.015 60.2225 229.874 59.9587C229.732 59.6949 229.505 59.5056 229.241 59.4325Z" fill="#EB9481"/>
<path d="M229.241 59.4326C229.376 59.4567 229.506 59.5114 229.623 59.5935C229.742 59.6795 229.845 59.7914 229.927 59.9227C230.009 60.0593 230.066 60.2133 230.096 60.3756C230.125 60.5379 230.125 60.7052 230.097 60.8677V60.8398V60.8677C230.049 61.1385 229.927 61.3849 229.747 61.5707C229.563 61.7588 229.33 61.875 229.083 61.9022L229.109 61.5598C229.268 61.5869 229.422 61.6437 229.564 61.728C229.713 61.8206 229.843 61.949 229.944 62.1043C230.046 62.2606 230.118 62.4403 230.153 62.6309C230.189 62.8216 230.188 63.0188 230.151 63.209C230.113 63.4004 230.04 63.5803 229.936 63.7368C229.833 63.8933 229.701 64.0228 229.549 64.1165C229.398 64.2104 229.23 64.2657 229.058 64.2787C229.014 64.2787 228.972 64.2787 228.929 64.2787C228.887 64.2787 228.843 64.2714 228.801 64.2654C228.758 64.2593 228.715 64.2472 228.676 64.2363L228.57 64.2073L228.725 63.831C228.912 63.9898 229.054 64.208 229.132 64.4581C229.211 64.7083 229.223 64.9792 229.166 65.237C229.112 65.492 228.993 65.7229 228.823 65.9001C228.656 66.0747 228.448 66.1903 228.224 66.2328C228.114 66.2528 228.002 66.2528 227.893 66.2328C227.837 66.2248 227.782 66.2119 227.729 66.1941L227.587 66.1409C227.4 66.0695 227.212 65.9993 227.026 65.9243C226.652 65.7779 226.282 65.6266 225.909 65.4657C226.299 65.5504 226.685 65.6448 227.068 65.744C227.261 65.7912 227.453 65.8432 227.645 65.8952L227.788 65.9339C227.935 65.9658 228.087 65.9558 228.23 65.9047C228.373 65.8536 228.502 65.7631 228.607 65.6411C228.723 65.5043 228.802 65.3332 228.836 65.1474C228.868 64.9648 228.854 64.7755 228.795 64.6017C228.736 64.4279 228.635 64.2768 228.503 64.1661L227.759 63.549L228.66 63.791L228.767 63.8201L228.856 63.8382L228.944 63.8467H229.034C229.151 63.835 229.266 63.7959 229.37 63.7317C229.475 63.669 229.568 63.5813 229.641 63.4744C229.715 63.3675 229.767 63.2441 229.795 63.1122C229.822 62.9793 229.825 62.8415 229.803 62.7074C229.781 62.5733 229.735 62.4459 229.667 62.333C229.6 62.2178 229.51 62.1215 229.406 62.0511C229.292 61.9788 229.169 61.9266 229.042 61.8962L228.02 61.59L229.068 61.5537C229.251 61.5461 229.428 61.4738 229.574 61.3468C229.727 61.2135 229.838 61.0284 229.893 60.8181V60.8459V60.8181C229.963 60.545 229.937 60.2518 229.82 60.0001C229.699 59.7325 229.491 59.529 229.241 59.4326Z" fill="#1D2238"/>
<path d="M231.181 64.2378C231.48 64.3068 231.777 64.3588 232.075 64.4157C232.372 64.4725 232.669 64.5137 232.968 64.5439C233.267 64.5742 233.565 64.6044 233.866 64.6201C234.167 64.6359 234.467 64.6419 234.773 64.6589C234.475 64.7338 234.171 64.7776 233.865 64.7896C233.253 64.8201 232.64 64.7505 232.045 64.5826C231.747 64.5025 231.458 64.3869 231.181 64.2378Z" fill="#1D2238"/>
<path d="M235.24 170.378C235.582 170.225 235.924 170.081 236.266 169.935C236.429 169.864 236.575 169.75 236.692 169.603C236.809 169.456 236.894 169.279 236.94 169.088C236.985 168.901 236.989 168.705 236.954 168.516C236.919 168.327 236.845 168.149 236.738 167.999C236.633 167.851 236.498 167.734 236.345 167.657C236.191 167.58 236.024 167.546 235.857 167.557L235.447 167.59L235.795 167.333C235.988 167.191 236.136 166.982 236.215 166.737C236.293 166.491 236.297 166.224 236.228 165.975C236.159 165.727 236.021 165.51 235.834 165.36C235.645 165.211 235.418 165.136 235.188 165.147L234.763 165.166L235.121 164.924C235.338 164.77 235.499 164.532 235.575 164.254C235.65 163.976 235.635 163.676 235.532 163.409C235.461 163.228 235.353 163.07 235.218 162.946C235.082 162.823 234.922 162.738 234.751 162.7C234.577 162.662 234.398 162.671 234.227 162.724C233.874 162.845 233.52 162.966 233.164 163.08C233.508 162.925 233.854 162.779 234.2 162.631C234.383 162.557 234.579 162.534 234.771 162.565C235.019 162.609 235.248 162.737 235.43 162.934C235.611 163.131 235.735 163.385 235.786 163.665C235.836 163.944 235.811 164.234 235.713 164.496C235.614 164.758 235.448 164.98 235.236 165.131L235.173 164.906C235.451 164.889 235.727 164.977 235.956 165.157C236.185 165.337 236.355 165.599 236.438 165.902C236.522 166.204 236.515 166.529 236.418 166.826C236.321 167.124 236.14 167.376 235.904 167.543L235.842 167.319C236.042 167.309 236.24 167.354 236.421 167.45C236.602 167.546 236.76 167.69 236.882 167.871C237.001 168.049 237.081 168.257 237.115 168.478C237.149 168.699 237.136 168.926 237.077 169.14C237.019 169.349 236.917 169.54 236.78 169.695C236.643 169.849 236.474 169.964 236.29 170.028C235.943 170.144 235.593 170.265 235.24 170.378Z" fill="white"/>
<path d="M219.389 98.3621C219.95 98.2653 220.511 98.1737 221.072 98.0874C221.634 98.0027 222.195 97.9168 222.758 97.8454C223.32 97.774 223.882 97.6869 224.444 97.6131C225.007 97.5393 225.569 97.4643 226.132 97.3965L225.95 97.6204C225.968 96.2567 226.067 94.9112 226.192 93.5632C226.318 92.2153 226.496 90.877 226.724 89.5472C226.952 88.2175 227.212 86.8973 227.533 85.5942C227.613 85.2687 227.698 84.9444 227.782 84.6201C227.866 84.2958 227.96 83.9752 228.056 83.6521C228.241 83.0096 228.452 82.3768 228.671 81.75C228.352 83.0495 228.057 84.3539 227.801 85.6668C227.674 86.3234 227.553 86.9816 227.441 87.6415C227.334 88.3022 227.228 88.9628 227.128 89.6247C227.028 90.2866 226.947 90.9557 226.863 91.6176C226.779 92.2794 226.711 92.9486 226.645 93.6165C226.579 94.2844 226.519 94.9475 226.471 95.6202C226.423 96.293 226.377 96.9609 226.356 97.6252L226.35 97.8309L226.174 97.8491C225.61 97.9047 225.046 97.9555 224.48 98.0027C223.915 98.0499 223.351 98.1007 222.787 98.1431C222.222 98.1854 221.656 98.2278 221.09 98.2641C220.525 98.3004 219.956 98.3355 219.389 98.3621Z" fill="#1D2238"/>
<path d="M207.941 105.963C207.975 106.206 208.087 106.425 208.255 106.579C208.423 106.733 208.635 106.81 208.85 106.795C211.029 106.648 217.028 106.254 217.614 106.323L238.647 108.786C252.282 110.135 251.301 102.781 250.734 94.9149L218.302 98.482C217.84 98.5325 217.376 98.4035 216.986 98.1159C216.597 97.8283 216.304 97.3991 216.156 96.8981L215.48 94.6221C215.382 94.2741 215.168 93.9833 214.885 93.8109C214.602 93.6385 214.271 93.5978 213.962 93.6976L213.945 93.7037C213.811 93.7561 213.699 93.862 213.629 94.0015C213.559 94.141 213.535 94.3047 213.563 94.4623L214.109 97.7027L207.907 96.4371C207.204 96.2943 206.446 96.4879 206.292 97.2841C206.138 98.0802 206.381 98.6017 207.272 98.9781L211.489 100.43L206.385 100.284C205.669 100.264 204.79 100.442 204.719 101.417C204.663 102.249 205.017 102.859 205.811 103.015L212.085 104.129L208.649 104.83C208.425 104.875 208.226 105.02 208.094 105.231C207.962 105.442 207.909 105.704 207.945 105.96L207.941 105.963Z" fill="#EB9481"/>
<path d="M236.332 96.2134C237.086 96.3174 237.829 96.4747 238.565 96.6502C239.301 96.8256 240.038 97.0204 240.767 97.2334C241.497 97.4464 242.223 97.6775 242.943 97.934C243.663 98.1905 244.381 98.4579 245.086 98.781C244.331 98.6769 243.588 98.5208 242.853 98.3454C242.117 98.1699 241.381 97.9751 240.652 97.761C239.922 97.5468 239.196 97.3157 238.476 97.0604C237.756 96.8051 237.037 96.5364 236.332 96.2134Z" fill="#1D2238"/>
<path d="M209.952 96.8809C210.425 96.9244 210.895 96.9934 211.363 97.0708C211.831 97.1483 212.299 97.2378 212.764 97.331C213.23 97.4242 213.694 97.5258 214.155 97.6468C214.617 97.7678 215.079 97.8888 215.538 98.034C215.064 97.9904 214.594 97.9227 214.125 97.8452C213.657 97.7678 213.191 97.6783 212.725 97.5839C212.259 97.4895 211.796 97.3842 211.334 97.2669C210.873 97.1495 210.408 97.0297 209.952 96.8809Z" fill="#1D2238"/>
<path d="M208.891 100.359C209.21 100.331 209.517 100.327 209.829 100.332C210.14 100.337 210.452 100.355 210.762 100.377C211.073 100.398 211.383 100.434 211.693 100.478C212.002 100.523 212.311 100.574 212.618 100.653C212.299 100.682 211.992 100.685 211.68 100.679C211.368 100.673 211.057 100.656 210.746 100.634C210.436 100.613 210.126 100.578 209.817 100.533C209.508 100.488 209.198 100.437 208.891 100.359Z" fill="#1D2238"/>
<path d="M209.264 103.632C209.573 103.624 209.88 103.641 210.186 103.668C210.492 103.694 210.795 103.732 211.099 103.774C211.403 103.817 211.704 103.872 212.006 103.938C212.308 104.003 212.607 104.074 212.905 104.172C212.597 104.178 212.289 104.167 211.983 104.137C211.678 104.113 211.374 104.073 211.069 104.031C210.765 103.989 210.463 103.933 210.162 103.866C209.86 103.805 209.56 103.727 209.264 103.632Z" fill="#1D2238"/>
<path d="M250.744 95.1497C249.549 95.3505 248.354 95.5336 247.158 95.699L245.363 95.941L243.567 96.1636L242.669 96.275L241.77 96.3754L239.972 96.575L239.074 96.6731L238.174 96.7602L236.379 96.9368L235.794 96.9937L235.705 96.3076C235.649 95.8793 235.599 95.4703 235.556 95.0504C235.514 94.6306 235.48 94.2168 235.45 93.7993C235.42 93.3819 235.386 92.9644 235.357 92.5469C235.329 92.1295 235.303 91.712 235.289 91.2934C235.259 90.4569 235.238 89.62 235.226 88.7826C235.226 88.5733 235.22 88.364 235.226 88.1546L235.234 87.5267C235.242 87.108 235.251 86.6893 235.265 86.2707C235.279 85.852 235.295 85.4334 235.314 85.0159C235.333 84.5985 235.367 84.1798 235.4 83.7623C235.433 83.3449 235.469 82.9274 235.506 82.5112C235.543 82.095 235.597 81.6799 235.652 81.2649C235.849 79.6044 236.161 77.9641 236.585 76.3596C236.587 76.3541 236.589 76.349 236.592 76.3445C236.596 76.3401 236.6 76.3364 236.604 76.3337C236.608 76.331 236.613 76.3294 236.618 76.3288C236.623 76.3283 236.628 76.3288 236.633 76.3305C236.642 76.3338 236.65 76.3407 236.655 76.3498C236.659 76.3588 236.661 76.3696 236.66 76.3801C236.409 78.0124 236.235 79.6604 236.12 81.3133C236.062 82.1393 236.02 82.9666 235.992 83.795C235.962 84.6239 235.948 85.4527 235.944 86.2816C235.935 87.9393 235.975 89.5982 236.051 91.2535C236.126 92.9087 236.232 94.564 236.406 96.2145L236.337 96.1491L250.748 95.0746C250.753 95.0741 250.758 95.0748 250.763 95.0766C250.767 95.0783 250.772 95.0811 250.776 95.0849C250.779 95.0886 250.782 95.0931 250.785 95.0982C250.787 95.1033 250.788 95.1089 250.788 95.1146C250.789 95.1256 250.786 95.1364 250.78 95.1449C250.774 95.1535 250.765 95.159 250.755 95.1606L250.744 95.1497Z" fill="#1D2238"/>
<path d="M269.602 54.4126C278.794 54.4126 286.246 46.8007 286.246 37.4109C286.246 28.0211 278.794 20.4092 269.602 20.4092C260.409 20.4092 252.958 28.0211 252.958 37.4109C252.958 46.8007 260.409 54.4126 269.602 54.4126Z" fill="#F1F2F5"/>
<path d="M252.65 56.1452C254.723 56.1452 256.403 54.2334 256.403 51.8751C256.403 49.5168 254.723 47.605 252.65 47.605C250.578 47.605 248.898 49.5168 248.898 51.8751C248.898 54.2334 250.578 56.1452 252.65 56.1452Z" fill="#F1F2F5"/>
<path d="M248.738 58.8125C249.47 57.979 249.47 56.6275 248.738 55.794C248.005 54.9604 246.817 54.9604 246.085 55.794C245.352 56.6275 245.352 57.9789 246.085 58.8125C246.817 59.6461 248.005 59.6461 248.738 58.8125Z" fill="#F1F2F5"/>
<path d="M298.529 221.217H20.3608C20.2903 221.217 20.2227 221.185 20.1728 221.128C20.123 221.071 20.095 220.995 20.095 220.914C20.095 220.834 20.123 220.757 20.1728 220.7C20.2227 220.644 20.2903 220.612 20.3608 220.612H298.529C298.599 220.612 298.667 220.644 298.717 220.7C298.767 220.757 298.795 220.834 298.795 220.914C298.795 220.995 298.767 221.071 298.717 221.128C298.667 221.185 298.599 221.217 298.529 221.217Z" fill="#1D2238"/>
<path d="M164.516 70.2573H68.9094V80.6549H164.516V70.2573Z" fill="#1D2238"/>
<path d="M75.872 76.8812C76.5491 76.5968 76.8954 75.7416 76.6455 74.9711C76.3955 74.2007 75.6441 73.8066 74.967 74.091C74.2899 74.3754 73.9436 75.2306 74.1935 76.001C74.4434 76.7715 75.1949 77.1656 75.872 76.8812Z" fill="#F0C36A"/>
<path d="M81.8969 75.6895C82.0129 74.8789 81.5295 74.1148 80.8171 73.9827C80.1048 73.8507 79.4333 74.4008 79.3172 75.2115C79.2012 76.0221 79.6847 76.7862 80.397 76.9182C81.1094 77.0503 81.7809 76.5001 81.8969 75.6895Z" fill="#D2D6E1"/>
<path d="M86.9208 75.6597C87.0369 74.8491 86.5534 74.085 85.8411 73.9529C85.1287 73.8209 84.4572 74.371 84.3412 75.1817C84.2252 75.9923 84.7086 76.7564 85.4209 76.8885C86.1333 77.0205 86.8048 76.4704 86.9208 75.6597Z" fill="#D2D6E1"/>
</svg>
