<svg width="28" height="28" viewBox="0 0 28 28" fill="none" xmlns="http://www.w3.org/2000/svg">
<rect width="28" height="28" rx="5" fill="#8FCE28"/>
<g clip-path="url(#clip0_444_3455)">
<path d="M14.0007 9.00004V11.5L17.334 8.16671L14.0007 4.83337V7.33337C10.3173 7.33337 7.33398 10.3167 7.33398 14C7.33398 15.3084 7.71732 16.525 8.36732 17.55L9.58398 16.3334C9.20898 15.6417 9.00065 14.8417 9.00065 14C9.00065 11.2417 11.2423 9.00004 14.0007 9.00004ZM19.634 10.45L18.4173 11.6667C18.784 12.3667 19.0007 13.1584 19.0007 14C19.0007 16.7584 16.759 19 14.0007 19V16.5L10.6673 19.8334L14.0007 23.1667V20.6667C17.684 20.6667 20.6673 17.6834 20.6673 14C20.6673 12.6917 20.284 11.475 19.634 10.45Z" fill="#0E1E25"/>
</g>
<defs>
<clipPath id="clip0_444_3455">
<rect width="20" height="20" fill="white" transform="translate(4 4)"/>
</clipPath>
</defs>
</svg>
