<svg width="168" height="213" viewBox="0 0 168 213" fill="none" xmlns="http://www.w3.org/2000/svg">
<path d="M17.8433 172.531C24.7139 171.052 29.0856 164.279 27.6076 157.403C26.1297 150.527 19.3618 146.152 12.4912 147.631C5.62053 149.11 1.2489 155.883 2.72685 162.759C4.20481 169.635 10.9727 174.01 17.8433 172.531Z" fill="#2875D0"/>
<path d="M15.1548 175.249C6.79985 175.249 0 168.444 0 160.083C0 151.722 6.79985 144.917 15.1548 144.917C23.5098 144.917 30.3096 151.722 30.3096 160.083C30.3096 168.444 23.5098 175.249 15.1548 175.249ZM15.1548 149.78C9.47643 149.78 4.85971 154.4 4.85971 160.083C4.85971 165.766 9.47643 170.386 15.1548 170.386C20.8332 170.386 25.4499 165.766 25.4499 160.083C25.4499 154.4 20.8332 149.78 15.1548 149.78Z" fill="#231F20"/>
<path d="M108.547 2.43167H46.6307C29.7301 2.43167 16.0332 16.1426 16.0332 33.0521V179.948C16.0332 196.861 29.7338 210.568 46.6307 210.568H134.965C151.866 210.568 165.563 196.857 165.563 179.948V59.4901L108.547 2.43167Z" fill="white"/>
<path d="M134.965 213H46.6308C28.4181 213 13.6035 198.174 13.6035 179.948V33.0521C13.6035 14.8258 28.4181 0 46.6308 0H108.547C109.19 0 109.811 0.254391 110.267 0.710798L167.282 57.7692C167.738 58.2256 167.993 58.8429 167.993 59.4901V179.948C167.993 198.174 153.178 213 134.965 213ZM46.6308 4.86336C31.0985 4.86336 18.4632 17.5081 18.4632 33.0521V179.948C18.4632 195.492 31.0985 208.137 46.6308 208.137H134.965C150.498 208.137 163.133 195.492 163.133 179.948V60.4964L107.542 4.86336H46.6308Z" fill="#231F20"/>
<path d="M108.547 2.4317L165.562 59.4901H120.707C113.993 59.4901 108.547 54.0431 108.547 47.3205V2.4317Z" fill="#DCDDDE"/>
<path d="M165.57 61.9218H120.708C112.663 61.9218 106.117 55.3712 106.117 47.3205V2.43169C106.117 1.4478 106.708 0.561169 107.616 0.187065C108.525 -0.190781 109.568 0.0187178 110.263 0.714552L167.166 57.6607C167.675 58.1059 167.996 58.7606 167.996 59.4901C167.996 60.8331 166.908 61.9218 165.566 61.9218H165.57ZM110.977 8.30139V47.3205C110.977 52.6889 115.339 57.0584 120.708 57.0584H159.697L110.977 8.30139Z" fill="#231F20"/>
<path d="M16.3136 86.65C8.7549 86.65 2.62793 92.7816 2.62793 100.346V157.7H2.87839C4.09706 151.385 9.6446 146.611 16.3136 146.611H154.131V86.65H16.3136Z" fill="#2875D0"/>
<path d="M2.87856 160.132H2.62809C1.28607 160.132 0.198242 159.043 0.198242 157.7V100.346C0.198242 91.4535 7.42799 84.2184 16.3138 84.2184H154.131C155.473 84.2184 156.561 85.307 156.561 86.65V146.611C156.561 147.955 155.473 149.043 154.131 149.043H16.3138C10.9307 149.043 6.28409 152.878 5.26355 158.16C5.04299 159.305 4.04115 160.132 2.87856 160.132ZM16.3138 89.0817C10.1083 89.0817 5.05795 94.1359 5.05795 100.346V148.77C7.98872 145.912 11.9849 144.18 16.3138 144.18H151.701V89.0817H16.3138Z" fill="#231F20"/>
<path d="M45.9766 130.974V130.88C45.9766 130.237 46.2083 129.777 46.6195 129.268L66.821 103.571H48.1373C47.2177 103.571 46.4812 102.834 46.4812 101.958C46.4812 101.038 47.2177 100.301 48.1373 100.301H70.0844C70.9592 100.301 71.7405 101.038 71.7405 101.869V101.962C71.7405 102.606 71.5087 103.066 71.0975 103.574L50.8961 129.272H70.3162C71.2358 129.272 71.9722 130.009 71.9722 130.884C71.9722 131.804 71.2358 132.541 70.3162 132.541H47.6775C46.7579 132.541 45.9766 131.804 45.9766 130.974Z" fill="white"/>
<path d="M79.6621 101.917C79.6621 100.903 80.492 100.077 81.4565 100.077C82.4209 100.077 83.2957 100.907 83.2957 101.917V130.929C83.2957 131.943 82.4658 132.77 81.4565 132.77C80.4471 132.77 79.6621 131.939 79.6621 130.929V101.917Z" fill="white"/>
<path d="M92.7305 102.149C92.7305 101.135 93.5604 100.309 94.5248 100.309H104.786C112.057 100.309 116.842 104.177 116.842 110.533V110.626C116.842 117.581 111.044 121.172 104.188 121.172H96.364V130.936C96.364 131.95 95.5341 132.777 94.5248 132.777C93.5155 132.777 92.7305 131.947 92.7305 130.936V102.157V102.149ZM104.326 117.85C109.665 117.85 113.16 114.996 113.16 110.757V110.664C113.16 106.059 109.71 103.664 104.51 103.664H96.364V117.847H104.323L104.326 117.85Z" fill="white"/>
</svg>
